<svg xmlns="http://www.w3.org/2000/svg" xmlns:xlink="http://www.w3.org/1999/xlink" width="1080" zoomAndPan="magnify" viewBox="0 0 810 809.999993" height="1080" preserveAspectRatio="xMidYMid meet" version="1.0"><defs><clipPath id="d715f4008a"><path d="M 61 60.03125 L 749 60.03125 L 749 747 L 61 747 Z M 61 60.03125 " clip-rule="nonzero"/></clipPath></defs><g clip-path="url(#d715f4008a)"><path fill="#00ca88" d="M 306.746094 434.507812 L 408.285156 434.507812 L 436.578125 490.84375 C 439.296875 496.40625 443.257812 500.714844 448.457031 503.769531 C 453.652344 506.828125 459.207031 508.355469 465.121094 508.355469 L 589.175781 508.355469 C 597.808594 508.355469 605.203125 505.28125 611.355469 499.132812 C 617.515625 492.988281 620.597656 485.527344 620.597656 476.757812 L 620.597656 329.589844 C 620.597656 320.957031 617.515625 313.5625 611.355469 307.40625 C 605.203125 301.246094 597.808594 298.167969 589.175781 298.167969 L 511.96875 298.167969 L 483.8125 241.617188 C 480.988281 236.195312 476.976562 231.960938 471.777344 228.90625 C 466.574219 225.847656 461.09375 224.320312 455.324219 224.320312 L 294.308594 224.320312 C 285.539062 224.320312 278.082031 227.398438 271.933594 233.558594 C 265.785156 239.714844 262.710938 247.109375 262.710938 255.742188 L 262.710938 597.113281 C 262.710938 603.46875 264.792969 608.726562 268.953125 612.886719 C 273.105469 617.046875 278.359375 619.128906 284.710938 619.128906 C 291.066406 619.128906 296.328125 617.046875 300.496094 612.886719 C 304.660156 608.726562 306.746094 603.46875 306.746094 597.113281 Z M 472.253906 464.324219 L 435.332031 390.476562 L 306.746094 390.476562 L 306.746094 268.351562 L 447.976562 268.351562 L 484.902344 342.199219 L 576.566406 342.199219 L 576.566406 464.324219 Z M 404.8125 746.578125 C 357.28125 746.578125 312.664062 737.5625 270.964844 719.523438 C 229.273438 701.484375 192.933594 676.996094 161.949219 646.054688 C 130.960938 615.105469 106.460938 578.800781 88.441406 537.136719 C 70.421875 495.480469 61.414062 450.882812 61.414062 403.34375 C 61.414062 355.8125 70.433594 311.195312 88.46875 269.496094 C 106.507812 227.800781 130.996094 191.464844 161.9375 160.476562 C 192.886719 129.492188 229.191406 104.992188 270.855469 86.972656 C 312.511719 68.953125 357.109375 59.945312 404.648438 59.945312 C 452.179688 59.945312 496.796875 68.960938 538.496094 87 C 580.191406 105.035156 616.527344 129.527344 647.515625 160.46875 C 678.5 191.417969 703 227.722656 721.019531 269.386719 C 739.039062 311.042969 748.046875 355.640625 748.046875 403.179688 C 748.046875 450.710938 739.03125 495.328125 720.992188 537.027344 C 702.957031 578.71875 678.464844 615.058594 647.523438 646.046875 C 616.574219 677.03125 580.269531 701.53125 538.609375 719.550781 C 496.953125 737.570312 452.351562 746.578125 404.8125 746.578125 Z M 404.722656 694.921875 C 485.886719 694.921875 554.789062 666.609375 611.429688 609.980469 C 668.070312 553.34375 696.390625 484.441406 696.390625 403.269531 C 696.390625 322.105469 668.078125 253.203125 611.449219 196.5625 C 554.8125 139.921875 485.910156 111.601562 404.738281 111.601562 C 323.574219 111.601562 254.671875 139.914062 198.03125 196.542969 C 141.390625 253.179688 113.070312 322.082031 113.070312 403.253906 C 113.070312 484.417969 141.382812 553.320312 198.011719 609.960938 C 254.648438 666.601562 323.550781 694.921875 404.722656 694.921875 Z M 404.730469 403.261719 Z M 404.730469 403.261719 " fill-opacity="1" fill-rule="nonzero"/></g></svg>