<svg width="908" height="192" viewBox="0 0 908 192" fill="none" xmlns="http://www.w3.org/2000/svg">
<mask id="mask0_126_2" style="mask-type:luminance" maskUnits="userSpaceOnUse" x="0" y="0" width="193" height="192">
<path d="M0.963867 0.556641H192.667V191.333H0.963867V0.556641Z" fill="white"/>
</mask>
<g mask="url(#mask0_126_2)">
<path d="M69.6517 104.505H97.8392L105.688 120.141C106.443 121.688 107.542 122.885 108.99 123.729C110.428 124.578 111.969 125.005 113.615 125.005H148.048C150.443 125.005 152.495 124.151 154.204 122.443C155.917 120.74 156.771 118.667 156.771 116.234V75.3802C156.771 72.9844 155.917 70.9323 154.204 69.224C152.495 67.5156 150.443 66.6615 148.048 66.6615H126.615L118.803 50.9635C118.016 49.4583 116.902 48.2812 115.459 47.4323C114.016 46.5833 112.495 46.1615 110.896 46.1615H66.1986C63.7663 46.1615 61.6934 47.0156 59.9902 48.724C58.2819 50.4323 57.4277 52.4844 57.4277 54.8854V149.641C57.4277 151.406 58.0059 152.865 59.1621 154.021C60.3132 155.172 61.7715 155.75 63.5371 155.75C65.2975 155.75 66.7611 155.172 67.9173 154.021C69.0736 152.865 69.6517 151.406 69.6517 149.641V104.505ZM115.594 112.781L105.344 92.2812H69.6517V58.3854H108.855L119.105 78.8802H144.548V112.781H115.594ZM96.8757 191.13C83.6777 191.13 71.2923 188.625 59.7194 183.62C48.1465 178.615 38.0579 171.812 29.459 163.224C20.8548 154.635 14.0579 144.557 9.05273 132.995C4.05273 121.432 1.55273 109.052 1.55273 95.8542C1.55273 82.6615 4.05273 70.276 9.06315 58.7031C14.0684 47.125 20.8652 37.0417 29.4538 28.4375C38.0475 19.8385 48.1257 13.0365 59.6882 8.03646C71.2507 3.03646 83.6309 0.53125 96.8288 0.53125C110.021 0.53125 122.407 3.03646 133.98 8.04167C145.553 13.0521 155.641 19.849 164.24 28.4375C172.844 37.026 179.646 47.1042 184.646 58.6719C189.646 70.2344 192.146 82.6146 192.146 95.8073C192.146 109.005 189.646 121.385 184.636 132.964C179.631 144.536 172.834 154.625 164.245 163.224C155.652 171.823 145.579 178.625 134.011 183.625C122.449 188.63 110.068 191.13 96.8757 191.13ZM96.8496 176.792C119.376 176.792 138.506 168.932 154.225 153.214C169.949 137.49 177.808 118.365 177.808 95.8333C177.808 73.3021 169.949 54.1771 154.23 38.4531C138.511 22.7344 119.386 14.8698 96.8548 14.8698C74.3236 14.8698 55.1986 22.7292 39.4746 38.4531C23.7507 54.1719 15.8913 73.2969 15.8913 95.8281C15.8913 118.359 23.7507 137.484 39.4694 153.208C55.1882 168.932 74.3184 176.792 96.8496 176.792Z" fill="#00CA88"/>
</g>
<path d="M349.315 65.9583C345.773 59.125 340.841 53.974 334.523 50.5C328.216 47.0156 320.924 45.2708 312.648 45.2708C303.576 45.2708 295.492 47.3073 288.398 51.375C281.299 55.4479 275.742 61.2292 271.732 68.7292C267.716 76.2188 265.711 84.8906 265.711 94.75C265.711 104.615 267.716 113.323 271.732 120.875C275.742 128.432 281.299 134.25 288.398 138.333C295.492 142.406 303.576 144.438 312.648 144.438C324.867 144.438 334.794 141.021 342.419 134.188C350.044 127.354 354.711 118.083 356.419 106.375H304.961V88.4375H380.482V106C379.023 116.641 375.237 126.432 369.128 135.375C363.013 144.307 355.065 151.438 345.273 156.771C335.482 162.094 324.607 164.75 312.648 164.75C299.758 164.75 287.987 161.766 277.336 155.792C266.695 149.807 258.253 141.49 252.003 130.833C245.763 120.182 242.648 108.156 242.648 94.75C242.648 81.349 245.763 69.3281 252.003 58.6875C258.253 48.0365 266.732 39.7188 277.44 33.7292C288.159 27.7448 299.898 24.75 312.648 24.75C327.232 24.75 340.211 28.3333 351.586 35.5C362.961 42.6667 371.211 52.8229 376.336 65.9583H349.315Z" fill="#1A2832"/>
<path d="M388.951 108.749C388.951 97.832 391.212 88.1758 395.743 79.7695C400.285 71.3529 406.462 64.8112 414.285 60.1445C422.102 55.4779 430.748 53.1445 440.222 53.1445C448.764 53.1445 456.222 54.8268 462.597 58.1862C468.972 61.5352 474.061 65.7018 477.868 70.6862V54.9154H500.555V163.561H477.868V147.395C474.061 152.52 468.873 156.79 462.305 160.207C455.732 163.624 448.243 165.332 439.826 165.332C430.493 165.332 421.941 162.936 414.18 158.145C406.43 153.342 400.285 146.639 395.743 138.04C391.212 129.431 388.951 119.665 388.951 108.749ZM477.868 109.145C477.868 101.645 476.326 95.1393 473.243 89.6237C470.16 84.1133 466.118 79.9102 461.118 77.0195C456.118 74.1185 450.727 72.6654 444.951 72.6654C439.17 72.6654 433.785 74.082 428.785 76.9154C423.785 79.7383 419.732 83.8737 416.639 89.332C413.555 94.7904 412.014 101.264 412.014 108.749C412.014 116.238 413.555 122.806 416.639 128.457C419.732 134.113 423.811 138.415 428.868 141.374C433.936 144.332 439.295 145.811 444.951 145.811C450.727 145.811 456.118 144.368 461.118 141.478C466.118 138.592 470.16 134.353 473.243 128.77C476.326 123.176 477.868 116.634 477.868 109.145Z" fill="#1A2832"/>
<path d="M578.835 53.1445C587.377 53.1445 595.028 54.9258 601.793 58.4779C608.569 62.0195 613.861 67.2799 617.668 74.2487C621.486 81.207 623.397 89.6185 623.397 99.4779V163.561H601.106V102.832C601.106 93.1133 598.674 85.6549 593.814 80.457C588.95 75.2643 582.314 72.6654 573.897 72.6654C565.481 72.6654 558.804 75.2643 553.877 80.457C548.96 85.6549 546.502 93.1133 546.502 102.832V163.561H524.022V54.9154H546.502V67.3529C550.179 62.8841 554.877 59.3945 560.585 56.8945C566.304 54.3945 572.387 53.1445 578.835 53.1445Z" fill="#1A2832"/>
<path d="M657.313 40.5208C653.229 40.5208 649.802 39.1458 647.042 36.3958C644.292 33.6354 642.917 30.2188 642.917 26.1458C642.917 22.0625 644.292 18.6458 647.042 15.8958C649.802 13.1354 653.229 11.75 657.313 11.75C661.256 11.75 664.604 13.1354 667.354 15.8958C670.115 18.6458 671.5 22.0625 671.5 26.1458C671.5 30.2188 670.115 33.6354 667.354 36.3958C664.604 39.1458 661.256 40.5208 657.313 40.5208ZM668.354 54.9167V163.562H645.875V54.9167H668.354Z" fill="#1A2832"/>
<path d="M684.316 109.145C684.316 97.9674 686.577 88.1393 691.108 79.6654C695.65 71.1966 701.926 64.6602 709.941 60.0612C717.967 55.4518 727.171 53.1445 737.546 53.1445C750.697 53.1445 761.577 56.2695 770.191 62.5195C778.801 68.7591 784.613 77.6602 787.629 89.2279H763.379C761.405 83.8424 758.254 79.6393 753.921 76.6237C749.587 73.5977 744.129 72.082 737.546 72.082C728.348 72.082 721.025 75.3424 715.566 81.8529C710.108 88.3529 707.379 97.4518 707.379 109.145C707.379 120.842 710.108 129.978 715.566 136.561C721.025 143.134 728.348 146.415 737.546 146.415C750.556 146.415 759.171 140.697 763.379 129.249H787.629C784.473 140.29 778.556 149.072 769.879 155.582C761.212 162.082 750.431 165.332 737.546 165.332C727.171 165.332 717.967 162.999 709.941 158.332C701.926 153.665 695.65 147.098 691.108 138.624C686.577 130.139 684.316 120.311 684.316 109.145Z" fill="#1A2832"/>
<path d="M851.133 165.332C840.883 165.332 831.613 162.999 823.321 158.332C815.04 153.665 808.535 147.098 803.8 138.624C799.076 130.139 796.717 120.311 796.717 109.145C796.717 98.1029 799.144 88.3112 804.008 79.7695C808.868 71.2279 815.498 64.6602 823.904 60.0612C832.321 55.4518 841.722 53.1445 852.113 53.1445C862.498 53.1445 871.894 55.4518 880.3 60.0612C888.717 64.6602 895.352 71.2279 900.217 79.7695C905.076 88.3112 907.508 98.1029 907.508 109.145C907.508 120.186 905.008 129.978 900.008 138.52C895.019 147.061 888.222 153.665 879.613 158.332C870.998 162.999 861.508 165.332 851.133 165.332ZM851.133 145.811C856.91 145.811 862.326 144.436 867.383 141.686C872.451 138.926 876.561 134.785 879.717 129.27C882.868 123.743 884.446 117.035 884.446 109.145C884.446 101.259 882.93 94.5924 879.904 89.1445C876.889 83.6862 872.883 79.5768 867.883 76.8112C862.894 74.0508 857.508 72.6654 851.717 72.6654C845.936 72.6654 840.581 74.0508 835.654 76.8112C830.722 79.5768 826.805 83.6862 823.904 89.1445C821.014 94.5924 819.571 101.259 819.571 109.145C819.571 120.842 822.561 129.874 828.55 136.249C834.535 142.624 842.061 145.811 851.133 145.811Z" fill="#1A2832"/>
</svg>
