<svg xmlns="http://www.w3.org/2000/svg" xmlns:xlink="http://www.w3.org/1999/xlink" width="1080" zoomAndPan="magnify" viewBox="0 0 810 809.999993" height="1080" preserveAspectRatio="xMidYMid meet" version="1.0"><path fill="#00ca88" d="M 267.839844 610.730469 L 319.273438 610.730469 L 319.273438 439.285156 L 404.996094 439.285156 L 439.285156 507.863281 L 610.730469 507.863281 L 610.730469 302.128906 L 507.863281 302.128906 L 473.574219 233.550781 L 267.839844 233.550781 Z M 404.996094 747.886719 C 357.5625 747.886719 312.988281 738.886719 271.269531 720.886719 C 229.550781 702.882812 193.261719 678.453125 162.402344 647.59375 C 131.542969 616.730469 107.109375 580.441406 89.109375 538.722656 C 71.109375 497.007812 62.105469 452.429688 62.105469 404.996094 C 62.105469 357.5625 71.109375 312.988281 89.109375 271.269531 C 107.109375 229.550781 131.542969 193.261719 162.402344 162.402344 C 193.261719 131.542969 229.550781 107.109375 271.269531 89.109375 C 312.988281 71.109375 357.5625 62.105469 404.996094 62.105469 C 452.429688 62.105469 497.007812 71.109375 538.722656 89.109375 C 580.441406 107.109375 616.730469 131.542969 647.59375 162.402344 C 678.453125 193.261719 702.882812 229.550781 720.886719 271.269531 C 738.886719 312.988281 747.886719 357.5625 747.886719 404.996094 C 747.886719 452.429688 738.886719 497.007812 720.886719 538.722656 C 702.882812 580.441406 678.453125 616.730469 647.59375 647.59375 C 616.730469 678.453125 580.441406 702.882812 538.722656 720.886719 C 497.007812 738.886719 452.429688 747.886719 404.996094 747.886719 Z M 404.996094 747.886719 " fill-opacity="1" fill-rule="nonzero"/></svg>