<svg width="884" height="139" viewBox="0 0 884 139" fill="none" xmlns="http://www.w3.org/2000/svg">
<mask id="mask0_108_646" style="mask-type:luminance" maskUnits="userSpaceOnUse" x="0" y="0" width="132" height="132">
<path d="M0.0830078 0H131.401V131.323H0.0830078V0Z" fill="white"/>
</mask>
<g mask="url(#mask0_108_646)">
<mask id="mask1_108_646" style="mask-type:luminance" maskUnits="userSpaceOnUse" x="0" y="0" width="132" height="132">
<path d="M30.5101 0H100.979C109.047 0 116.786 3.20833 122.494 8.91146C128.198 14.6198 131.401 22.3542 131.401 30.4271V100.896C131.401 108.964 128.198 116.703 122.494 122.411C116.786 128.115 109.047 131.323 100.979 131.323H30.5101C22.4372 131.323 14.7028 128.115 8.99447 122.411C3.29134 116.703 0.0830078 108.964 0.0830078 100.896V30.4271C0.0830078 22.3542 3.29134 14.6198 8.99447 8.91146C14.7028 3.20833 22.4372 0 30.5101 0Z" fill="white"/>
</mask>
<g mask="url(#mask1_108_646)">
<path d="M0.0830078 0H131.401V131.323H0.0830078V0Z" fill="#CEFFE7"/>
</g>
</g>
<mask id="mask2_108_646" style="mask-type:luminance" maskUnits="userSpaceOnUse" x="39" y="41" width="54" height="41">
<path d="M39.9736 41.5039H92.1611V81.0299H39.9736V41.5039Z" fill="white"/>
</mask>
<g mask="url(#mask2_108_646)">
<mask id="mask3_108_646" style="mask-type:luminance" maskUnits="userSpaceOnUse" x="39" y="41" width="54" height="41">
<path d="M59.7393 41.5039H72.3382C83.2549 41.5039 92.0986 50.3529 92.0986 61.2695C92.0986 72.181 83.2549 81.0299 72.3382 81.0299H59.7393C48.8226 81.0299 39.9736 72.181 39.9736 61.2695C39.9736 50.3529 48.8226 41.5039 59.7393 41.5039Z" fill="white"/>
</mask>
<g mask="url(#mask3_108_646)">
<path d="M39.9736 41.5039H92.1611V81.0299H39.9736V41.5039Z" fill="white"/>
</g>
</g>
<mask id="mask4_108_646" style="mask-type:luminance" maskUnits="userSpaceOnUse" x="102" y="0" width="30" height="132">
<path d="M102.614 0H131.401V131.339H102.614V0Z" fill="white"/>
</mask>
<g mask="url(#mask4_108_646)">
<mask id="mask5_108_646" style="mask-type:luminance" maskUnits="userSpaceOnUse" x="102" y="0" width="30" height="132">
<path d="M117.01 0C124.958 0 131.401 6.44792 131.401 14.3958V116.927C131.401 124.875 124.958 131.323 117.01 131.323C109.062 131.323 102.614 124.875 102.614 116.927V14.3958C102.614 6.44792 109.062 0 117.01 0Z" fill="white"/>
</mask>
<g mask="url(#mask5_108_646)">
<path d="M102.614 0H131.401V131.339H102.614V0Z" fill="#A8E0C5"/>
</g>
</g>
<mask id="mask6_108_646" style="mask-type:luminance" maskUnits="userSpaceOnUse" x="102" y="0" width="14" height="132">
<path d="M102.614 0H115.854V131.323H102.614V0Z" fill="white"/>
</mask>
<g mask="url(#mask6_108_646)">
<path d="M102.614 0H115.854V131.307H102.614V0Z" fill="#A8E0C5"/>
</g>
<mask id="mask7_108_646" style="mask-type:luminance" maskUnits="userSpaceOnUse" x="0" y="104" width="130" height="28">
<path d="M0 104.844H129.083V131.318H0V104.844Z" fill="white"/>
</mask>
<g mask="url(#mask7_108_646)">
<mask id="mask8_108_646" style="mask-type:luminance" maskUnits="userSpaceOnUse" x="0" y="104" width="130" height="28">
<path d="M129.084 118.083C129.084 121.594 127.688 124.958 125.209 127.443C122.724 129.927 119.36 131.318 115.844 131.318H13.3128C9.80241 131.318 6.43783 129.927 3.95345 127.443C1.46908 124.958 0.0732422 121.594 0.0732422 118.083C0.0732422 114.568 1.46908 111.203 3.95345 108.719C6.43783 106.234 9.80241 104.844 13.3128 104.844H115.844C119.36 104.844 122.724 106.234 125.209 108.719C127.688 111.203 129.084 114.568 129.084 118.083Z" fill="white"/>
</mask>
<g mask="url(#mask8_108_646)">
<path d="M129.084 104.844V131.318H0.104492V104.844H129.084Z" fill="#88FFC5"/>
</g>
</g>
<mask id="mask9_108_646" style="mask-type:luminance" maskUnits="userSpaceOnUse" x="0" y="104" width="130" height="15">
<path d="M0.078125 104.84H129.089V118.079H0.078125V104.84Z" fill="white"/>
</mask>
<g mask="url(#mask9_108_646)">
<path d="M129.089 104.84V118.079H0.0576172V104.84H129.089Z" fill="#88FFC5"/>
</g>
<mask id="mask10_108_646" style="mask-type:luminance" maskUnits="userSpaceOnUse" x="102" y="104" width="30" height="28">
<path d="M102.614 104.844H131.474V131.323H102.614V104.844Z" fill="white"/>
</mask>
<g mask="url(#mask10_108_646)">
<mask id="mask11_108_646" style="mask-type:luminance" maskUnits="userSpaceOnUse" x="102" y="104" width="30" height="28">
<path d="M115.854 104.844H118.161C121.677 104.844 125.041 106.234 127.526 108.719C130.01 111.203 131.401 114.568 131.401 118.083C131.401 121.594 130.01 124.958 127.526 127.443C125.041 129.927 121.677 131.323 118.161 131.323H115.854C112.343 131.323 108.979 129.927 106.494 127.443C104.01 124.958 102.614 121.594 102.614 118.083C102.614 114.568 104.01 111.203 106.494 108.719C108.979 106.234 112.343 104.844 115.854 104.844Z" fill="white"/>
</mask>
<g mask="url(#mask11_108_646)">
<path d="M102.614 104.844H131.369V131.323H102.614V104.844Z" fill="#00BF63"/>
</g>
</g>
<mask id="mask12_108_646" style="mask-type:luminance" maskUnits="userSpaceOnUse" x="102" y="104" width="18" height="28">
<path d="M102.614 104.844H119.854V131.323H102.614V104.844Z" fill="white"/>
</mask>
<g mask="url(#mask12_108_646)">
<path d="M102.614 104.844H119.854V131.307H102.614V104.844Z" fill="#00BF63"/>
</g>
<mask id="mask13_108_646" style="mask-type:luminance" maskUnits="userSpaceOnUse" x="102" y="104" width="30" height="17">
<path d="M102.609 104.844H131.396V120.411H102.609V104.844Z" fill="white"/>
</mask>
<g mask="url(#mask13_108_646)">
<path d="M131.396 104.844V120.411H102.625V104.844H131.396Z" fill="#00BF63"/>
</g>
<path d="M30.6514 104.311V38.832C30.6514 37.2227 31.2451 35.8268 32.4222 34.6497C33.6045 33.4674 35.0003 32.8789 36.6045 32.8789H96.1305C97.7399 32.8789 99.1357 33.4674 100.313 34.6497C101.495 35.8268 102.084 37.2227 102.084 38.832V84.0716C102.084 85.6758 101.495 87.0716 100.313 88.2539C99.1357 89.431 97.7399 90.0247 96.1305 90.0247H44.9378L30.6514 104.311ZM55.9222 76.6289L66.3701 70.2904L76.818 76.6289L74.0472 64.7539L83.3337 56.7174L71.1045 55.7383L66.3701 44.4831L61.6357 55.7383L49.4066 56.7174L58.693 64.7539L55.9222 76.6289Z" fill="#377DFF"/>
<path d="M190.074 112.01V26.3438H206.512V112.01H190.074Z" fill="black"/>
<path d="M247.844 113.176C241.594 113.176 236.037 111.811 231.178 109.072C226.313 106.322 222.475 102.561 219.657 97.7799C216.834 92.9883 215.428 87.5456 215.428 81.4466C215.428 75.2695 216.834 69.7695 219.657 64.9466C222.475 60.1289 226.313 56.3529 231.178 53.6133C236.037 50.8633 241.594 49.4883 247.844 49.4883C254.094 49.4883 259.646 50.8633 264.511 53.6133C269.37 56.3529 273.209 60.1289 276.032 64.9466C278.85 69.7695 280.261 75.2695 280.261 81.4466C280.261 87.5456 278.85 92.9883 276.032 97.7799C273.209 102.561 269.37 106.322 264.511 109.072C259.646 111.811 254.094 113.176 247.844 113.176ZM247.844 98.9258C250.855 98.9258 253.558 98.1549 255.949 96.6133C258.334 95.0716 260.204 92.9883 261.553 90.3633C262.912 87.7383 263.553 84.7695 263.469 81.4466C263.553 77.9779 262.912 74.9049 261.553 72.2383C260.204 69.5716 258.334 67.4883 255.949 65.9883C253.558 64.4883 250.855 63.7383 247.844 63.7383C244.829 63.7383 242.105 64.5091 239.678 66.0508C237.245 67.5924 235.355 69.6758 234.011 72.3008C232.662 74.9258 232.021 77.9779 232.094 81.4466C232.021 84.7695 232.662 87.7383 234.011 90.3633C235.355 92.9883 237.245 95.0716 239.678 96.6133C242.105 98.1549 244.829 98.9258 247.844 98.9258Z" fill="black"/>
<path d="M315.69 113.176C309.815 113.176 304.555 111.79 299.92 109.009C295.295 106.217 291.649 102.415 288.982 97.5924C286.326 92.7747 285.003 87.3945 285.003 81.4466C285.003 75.3529 286.326 69.8945 288.982 65.0716C291.649 60.2383 295.295 56.4362 299.92 53.6549C304.555 50.8789 309.815 49.4883 315.69 49.4883C321.159 49.4883 326.154 50.5195 330.67 52.5716C335.18 54.6133 338.716 57.4049 341.274 60.9466L332.357 71.8424C331.274 70.3737 329.92 69.0195 328.295 67.7799C326.68 66.5456 324.925 65.582 323.024 64.8841C321.133 64.1914 319.19 63.8424 317.19 63.8424C314.024 63.8424 311.201 64.6029 308.732 66.1133C306.258 67.6133 304.326 69.6966 302.94 72.3633C301.55 75.0195 300.857 78.0039 300.857 81.3216C300.857 84.5716 301.591 87.5091 303.065 90.1341C304.534 92.7591 306.503 94.8424 308.961 96.3841C311.43 97.9258 314.175 98.6966 317.19 98.6966C319.19 98.6966 321.097 98.4154 322.92 97.8424C324.737 97.2591 326.42 96.3945 327.961 95.2383C329.503 94.0716 330.966 92.7174 332.357 91.1758L341.274 102.051C338.716 105.374 335.107 108.061 330.44 110.113C325.774 112.155 320.857 113.176 315.69 113.176Z" fill="black"/>
<path d="M382.139 112.009V73.6966C382.139 70.4466 381.149 67.957 379.181 66.2174C377.207 64.4831 374.561 63.6133 371.243 63.6133C368.087 63.6133 365.274 64.2331 362.806 65.4674C360.332 66.707 358.014 68.6341 355.847 71.2591L345.785 61.5299C349.493 57.6706 353.639 54.6966 358.222 52.6133C362.816 50.5299 367.816 49.4883 373.222 49.4883C378.165 49.4883 382.462 50.2591 386.118 51.8008C389.785 53.3424 392.618 55.6654 394.618 58.7591C396.629 61.8424 397.639 65.7383 397.639 70.4466V112.009H382.139ZM365.347 113.176C361.483 113.176 357.993 112.405 354.868 110.863C351.743 109.311 349.269 107.165 347.451 104.426C345.644 101.691 344.743 98.4674 344.743 94.7591C344.743 91.5924 345.316 88.7956 346.472 86.3633C347.639 83.9362 349.353 81.9258 351.618 80.3424C353.894 78.7591 356.748 77.5456 360.181 76.6966C363.623 75.8529 367.623 75.4258 372.181 75.4258H390.243L389.201 86.4258H371.951C370.087 86.4258 368.441 86.582 367.014 86.8841C365.597 87.1914 364.399 87.6914 363.431 88.3841C362.472 89.082 361.743 89.8945 361.243 90.8216C360.743 91.7539 360.493 92.8372 360.493 94.0716C360.493 95.3789 360.837 96.5404 361.535 97.5508C362.228 98.5508 363.17 99.3216 364.368 99.8633C365.561 100.395 366.931 100.655 368.472 100.655C370.707 100.655 372.847 100.275 374.889 99.5091C376.941 98.7331 378.774 97.6497 380.389 96.2591C382.014 94.8737 383.29 93.2904 384.222 91.5091L387.347 99.7383C385.722 102.363 383.748 104.686 381.431 106.697C379.123 108.697 376.618 110.28 373.91 111.447C371.212 112.598 368.358 113.176 365.347 113.176Z" fill="black"/>
<path d="M408.987 112.01V26.3438H425.425V112.01H408.987Z" fill="black"/>
<path d="M466.299 138.634C461.507 138.634 456.737 137.936 451.987 136.551C447.247 135.16 443.414 133.306 440.487 130.988L446.257 119.197C448.726 120.889 451.56 122.238 454.757 123.238C457.966 124.238 461.268 124.738 464.674 124.738C468.768 124.738 472.112 124.118 474.695 122.884C477.278 121.645 479.2 119.811 480.466 117.384C481.742 114.952 482.382 111.895 482.382 108.197V97.5299L485.174 98.2383C484.7 100.629 483.403 102.884 481.278 105.009C479.164 107.134 476.56 108.858 473.466 110.176C470.382 111.483 467.143 112.134 463.757 112.134C458.117 112.134 453.075 110.801 448.632 108.134C444.2 105.467 440.705 101.822 438.153 97.1966C435.612 92.5612 434.341 87.2331 434.341 81.2174C434.341 75.0404 435.612 69.5612 438.153 64.7799C440.705 59.9883 444.164 56.2487 448.528 53.5508C452.888 50.8424 457.804 49.4883 463.278 49.4883C465.596 49.4883 467.82 49.7591 469.945 50.3008C472.07 50.8424 474.034 51.6029 475.841 52.5716C477.659 53.5299 479.299 54.5924 480.757 55.7591C482.226 56.9154 483.424 58.1862 484.341 59.5716C485.268 60.9622 485.851 62.3529 486.091 63.7383L482.612 64.7799L483.091 50.7591H498.945V107.384C498.945 112.311 498.185 116.728 496.674 120.634C495.174 124.535 493.013 127.811 490.195 130.467C487.372 133.134 483.955 135.16 479.945 136.551C475.945 137.936 471.393 138.634 466.299 138.634ZM466.757 98.8216C469.992 98.8216 472.825 98.0872 475.257 96.6133C477.685 95.1445 479.575 93.0924 480.924 90.4674C482.284 87.8424 482.966 84.7956 482.966 81.3216C482.966 77.7799 482.284 74.6966 480.924 72.0716C479.575 69.4466 477.685 67.3841 475.257 65.8841C472.825 64.3737 469.992 63.6133 466.757 63.6133C463.591 63.6133 460.81 64.3737 458.424 65.8841C456.034 67.3841 454.159 69.4466 452.799 72.0716C451.45 74.6966 450.778 77.7487 450.778 81.2174C450.778 84.6914 451.45 87.7591 452.799 90.4258C454.159 93.082 456.034 95.1445 458.424 96.6133C460.81 98.0872 463.591 98.8216 466.757 98.8216Z" fill="black"/>
<path d="M545.485 112.009V73.6966C545.485 70.4466 544.495 67.957 542.526 66.2174C540.552 64.4831 537.907 63.6133 534.589 63.6133C531.433 63.6133 528.62 64.2331 526.151 65.4674C523.677 66.707 521.36 68.6341 519.193 71.2591L509.131 61.5299C512.839 57.6706 516.985 54.6966 521.568 52.6133C526.162 50.5299 531.162 49.4883 536.568 49.4883C541.511 49.4883 545.808 50.2591 549.464 51.8008C553.131 53.3424 555.964 55.6654 557.964 58.7591C559.974 61.8424 560.985 65.7383 560.985 70.4466V112.009H545.485ZM528.693 113.176C524.828 113.176 521.339 112.405 518.214 110.863C515.089 109.311 512.615 107.165 510.797 104.426C508.99 101.691 508.089 98.4674 508.089 94.7591C508.089 91.5924 508.662 88.7956 509.818 86.3633C510.985 83.9362 512.698 81.9258 514.964 80.3424C517.24 78.7591 520.094 77.5456 523.526 76.6966C526.969 75.8529 530.969 75.4258 535.526 75.4258H553.589L552.547 86.4258H535.297C533.433 86.4258 531.787 86.582 530.36 86.8841C528.943 87.1914 527.745 87.6914 526.776 88.3841C525.818 89.082 525.089 89.8945 524.589 90.8216C524.089 91.7539 523.839 92.8372 523.839 94.0716C523.839 95.3789 524.183 96.5404 524.881 97.5508C525.573 98.5508 526.516 99.3216 527.714 99.8633C528.907 100.395 530.276 100.655 531.818 100.655C534.052 100.655 536.193 100.275 538.235 99.5091C540.287 98.7331 542.12 97.6497 543.735 96.2591C545.36 94.8737 546.636 93.2904 547.568 91.5091L550.693 99.7383C549.068 102.363 547.094 104.686 544.776 106.697C542.469 108.697 539.964 110.28 537.256 111.447C534.558 112.598 531.703 113.176 528.693 113.176Z" fill="black"/>
<path d="M572.229 112.009V50.7591H588.084L588.542 63.2799L585.292 64.6549C586.068 61.8789 587.573 59.3529 589.813 57.0716C592.047 54.7956 594.709 52.9622 597.792 51.5716C600.886 50.1862 604.094 49.4883 607.417 49.4883C612.042 49.4883 615.917 50.4206 619.042 52.2799C622.167 54.1289 624.521 56.9258 626.104 60.6758C627.688 64.4154 628.479 69.0612 628.479 74.6133V112.009H612.042V75.7799C612.042 73.0039 611.651 70.6914 610.875 68.8424C610.11 66.9831 608.959 65.6289 607.417 64.7799C605.875 63.9362 603.901 63.5456 601.5 63.6133C599.651 63.6133 597.959 63.9049 596.417 64.4883C594.875 65.0716 593.506 65.9049 592.313 66.9883C591.115 68.0612 590.209 69.2904 589.584 70.6758C588.969 72.0664 588.667 73.6081 588.667 75.3008V112.009H580.438C578.74 112.009 577.198 112.009 575.813 112.009C574.422 112.009 573.229 112.009 572.229 112.009Z" fill="black"/>
<path d="M674.564 112.009V73.6966C674.564 70.4466 673.574 67.957 671.605 66.2174C669.632 64.4831 666.986 63.6133 663.668 63.6133C660.512 63.6133 657.699 64.2331 655.23 65.4674C652.757 66.707 650.439 68.6341 648.272 71.2591L638.21 61.5299C641.918 57.6706 646.064 54.6966 650.647 52.6133C655.241 50.5299 660.241 49.4883 665.647 49.4883C670.59 49.4883 674.887 50.2591 678.543 51.8008C682.21 53.3424 685.043 55.6654 687.043 58.7591C689.053 61.8424 690.064 65.7383 690.064 70.4466V112.009H674.564ZM657.772 113.176C653.908 113.176 650.418 112.405 647.293 110.863C644.168 109.311 641.694 107.165 639.876 104.426C638.069 101.691 637.168 98.4674 637.168 94.7591C637.168 91.5924 637.741 88.7956 638.897 86.3633C640.064 83.9362 641.777 81.9258 644.043 80.3424C646.319 78.7591 649.173 77.5456 652.605 76.6966C656.048 75.8529 660.048 75.4258 664.605 75.4258H682.668L681.626 86.4258H664.376C662.512 86.4258 660.866 86.582 659.439 86.8841C658.022 87.1914 656.824 87.6914 655.855 88.3841C654.897 89.082 654.168 89.8945 653.668 90.8216C653.168 91.7539 652.918 92.8372 652.918 94.0716C652.918 95.3789 653.262 96.5404 653.96 97.5508C654.652 98.5508 655.595 99.3216 656.793 99.8633C657.986 100.395 659.355 100.655 660.897 100.655C663.132 100.655 665.272 100.275 667.314 99.5091C669.366 98.7331 671.199 97.6497 672.814 96.2591C674.439 94.8737 675.715 93.2904 676.647 91.5091L679.772 99.7383C678.147 102.363 676.173 104.686 673.855 106.697C671.548 108.697 669.043 110.28 666.335 111.447C663.637 112.598 660.783 113.176 657.772 113.176Z" fill="black"/>
<path d="M725.371 113.177C720.048 113.177 715.246 111.833 710.954 109.135C706.673 106.427 703.319 102.667 700.892 97.8438C698.46 93.0104 697.246 87.5469 697.246 81.4479C697.246 75.2708 698.46 69.7917 700.892 65.0104C703.319 60.2188 706.652 56.4375 710.892 53.6563C715.142 50.8802 719.965 49.4896 725.371 49.4896C728.23 49.4896 730.986 49.9375 733.642 50.8229C736.309 51.7135 738.684 52.9271 740.767 54.4688C742.861 56.0104 744.564 57.7344 745.871 59.6354C747.173 61.526 747.944 63.4688 748.184 65.4688L744.017 66.2813V26.3438H760.35V112.01H744.829L744.142 97.8854L747.371 98.3438C747.298 100.208 746.647 102.026 745.413 103.802C744.173 105.568 742.527 107.167 740.475 108.594C738.434 110.026 736.121 111.151 733.538 111.969C730.954 112.771 728.23 113.177 725.371 113.177ZM728.975 99.5104C732.142 99.5104 734.855 98.7396 737.121 97.1979C739.397 95.6563 741.189 93.5417 742.496 90.8438C743.814 88.1354 744.475 85.0052 744.475 81.4479C744.475 77.8229 743.814 74.6458 742.496 71.9063C741.189 69.1563 739.397 67.0313 737.121 65.5313C734.855 64.0313 732.142 63.2813 728.975 63.2813C725.96 63.2813 723.293 64.0313 720.975 65.5313C718.668 67.0313 716.876 69.1563 715.6 71.9063C714.319 74.6458 713.684 77.8229 713.684 81.4479C713.684 85.0052 714.319 88.1354 715.6 90.8438C716.876 93.5417 718.668 95.6563 720.975 97.1979C723.293 98.7396 725.96 99.5104 728.975 99.5104Z" fill="black"/>
<path d="M800.974 113.176C794.724 113.176 789.167 111.811 784.308 109.072C779.443 106.322 775.604 102.561 772.787 97.7799C769.964 92.9883 768.558 87.5456 768.558 81.4466C768.558 75.2695 769.964 69.7695 772.787 64.9466C775.604 60.1289 779.443 56.3529 784.308 53.6133C789.167 50.8633 794.724 49.4883 800.974 49.4883C807.224 49.4883 812.776 50.8633 817.641 53.6133C822.5 56.3529 826.339 60.1289 829.162 64.9466C831.979 69.7695 833.391 75.2695 833.391 81.4466C833.391 87.5456 831.979 92.9883 829.162 97.7799C826.339 102.561 822.5 106.322 817.641 109.072C812.776 111.811 807.224 113.176 800.974 113.176ZM800.974 98.9258C803.985 98.9258 806.688 98.1549 809.078 96.6133C811.464 95.0716 813.334 92.9883 814.683 90.3633C816.042 87.7383 816.683 84.7695 816.599 81.4466C816.683 77.9779 816.042 74.9049 814.683 72.2383C813.334 69.5716 811.464 67.4883 809.078 65.9883C806.688 64.4883 803.985 63.7383 800.974 63.7383C797.959 63.7383 795.235 64.5091 792.808 66.0508C790.375 67.5924 788.485 69.6758 787.141 72.3008C785.792 74.9258 785.151 77.9779 785.224 81.4466C785.151 84.7695 785.792 87.7383 787.141 90.3633C788.485 92.9883 790.375 95.0716 792.808 96.6133C795.235 98.1549 797.959 98.9258 800.974 98.9258Z" fill="black"/>
<path d="M842.196 112.009V50.7591H858.05L858.634 70.4466L855.842 66.2799C856.853 63.1966 858.384 60.3841 860.425 57.8424C862.467 55.2904 864.894 53.2591 867.717 51.7591C870.535 50.2487 873.488 49.4883 876.571 49.4883C877.957 49.4883 879.248 49.5872 880.446 49.7799C881.639 49.9779 882.66 50.2695 883.509 50.6549L879.113 68.5924C878.264 68.207 877.165 67.8372 875.821 67.4883C874.472 67.1445 873.103 66.9674 871.717 66.9674C869.936 66.9674 868.259 67.3008 866.675 67.9674C865.092 68.6237 863.701 69.5456 862.509 70.7383C861.311 71.9362 860.384 73.3424 859.717 74.9674C859.061 76.582 858.738 78.3945 858.738 80.4049V112.009H842.196Z" fill="black"/>
</svg>
