<svg width="5294" height="1337" viewBox="0 0 5294 1337" fill="none" xmlns="http://www.w3.org/2000/svg">
<path d="M965.5 25C442.346 25 18 296.803 18 631.263C18 965.722 442.346 1264 965.5 1264C1488.65 1264 1913 966.605 1913 631.263C1913 295.921 1488.65 25 965.5 25Z" fill="#00BCFF"/>
<path d="M656.71 444.424C655.827 445.305 647.002 455.004 653.18 462.939C668.182 481.455 713.188 492.036 759.077 482.337C786.433 476.165 820.85 448.832 855.267 421.499C892.33 392.403 928.512 363.307 964.693 351.844C1003.52 339.501 1028.23 344.791 1045 350.081C1062.65 355.371 1083.83 367.715 1118.24 392.403C1181.78 440.015 1436.82 663.087 1481.82 701C1517.12 685.129 1686.56 616.356 1901 569.626C1882.47 455.004 1813.63 346.554 1707.74 261.029C1560.36 322.748 1368.87 359.78 1192.37 274.254C1191.49 274.254 1096.18 229.287 1002.64 231.051C863.209 234.577 802.318 294.533 738.78 358.898L656.71 444.424Z" fill="white"/>
<path d="M1470.68 724.89C1468.03 722.242 1170.62 461.88 1102.67 411.573C1063.84 382.448 1041.77 374.505 1018.83 371.857C1007.36 370.092 990.588 372.739 979.115 375.387C947.345 384.213 906.749 411.573 870.566 439.816C832.618 469.824 797.317 498.066 764.664 505.127C722.304 514.835 671.118 503.362 647.29 487.475C637.582 481.297 631.405 473.354 627.875 466.293C619.049 445.994 634.935 430.107 637.582 427.46L719.656 338.319C729.364 328.611 739.071 318.902 748.779 310.076C722.304 313.607 697.593 320.667 673.765 326.845C643.76 334.788 615.519 342.732 586.396 342.732C574.041 342.732 509.618 332.141 497.262 328.611C423.131 308.311 338.41 288.894 241.333 243C124.842 329.493 48.9454 436.285 26 556.316C42.7678 560.729 86.8935 570.438 98.3661 573.085C362.238 632.218 444.312 692.234 459.314 704.59C475.2 686.939 499.028 675.465 524.62 675.465C553.743 675.465 580.219 690.469 596.104 712.534C611.107 700.177 632.287 690.469 658.763 690.469C671.118 690.469 683.473 693.117 696.711 696.647C726.716 707.238 741.719 726.655 749.661 744.307C759.369 739.894 771.724 736.363 786.727 736.363C800.847 736.363 815.85 739.893 830.853 746.072C879.391 767.253 887.334 814.913 882.921 851.099C886.451 851.099 889.981 850.216 893.511 850.216C950.875 850.216 998.53 896.993 998.53 955.243C998.53 972.895 994.118 989.664 986.175 1004.67C1002.06 1013.49 1041.77 1033.79 1077.07 1029.38C1105.31 1025.85 1115.9 1016.14 1119.43 1010.85C1122.08 1007.32 1124.73 1002.9 1122.08 999.373L1047.95 916.41C1047.95 916.41 1035.6 904.936 1040.01 900.523C1044.42 896.11 1051.48 902.289 1056.78 906.701C1094.72 938.474 1140.62 986.134 1140.62 986.134C1141.5 987.016 1144.15 992.312 1161.8 995.842C1176.8 998.49 1202.39 996.725 1220.92 981.721C1225.34 978.191 1229.75 972.895 1234.16 968.482L1233.28 969.365C1252.69 944.653 1231.51 919.94 1231.51 919.94L1144.15 821.974C1144.15 821.974 1131.79 810.5 1136.2 806.087C1139.73 801.674 1147.68 807.852 1153.85 812.265C1181.21 835.212 1220.04 874.046 1257.99 911.114C1265.05 916.41 1297.7 936.709 1341.83 908.466C1368.3 890.815 1373.6 869.633 1372.72 853.747C1370.95 832.565 1354.18 817.561 1354.18 817.561L1235.04 698.412C1235.04 698.412 1222.69 687.821 1227.1 682.526C1230.63 678.113 1238.57 684.291 1243.87 688.704C1281.82 720.477 1384.19 814.03 1384.19 814.03C1385.95 814.913 1421.25 840.508 1464.5 812.265C1480.38 802.557 1490.09 787.553 1490.97 769.901C1491.86 742.541 1470.68 724.89 1470.68 724.89Z" fill="white"/>
<path d="M894.007 875.619C875.492 875.619 855.214 886.209 852.569 884.444C850.806 883.561 853.451 876.501 855.214 872.089C856.978 867.676 880.782 795.311 822.593 769.718C777.629 750.303 749.417 772.365 740.6 782.073C737.955 784.721 737.074 784.72 737.074 781.19C736.192 767.953 730.021 732.653 691.228 720.298C635.684 703.53 599.537 742.36 590.72 756.48C586.312 724.71 559.863 700 527.242 700C491.094 700 462.882 729.123 462 764.423C462 800.606 491.094 828.846 526.36 828.846C543.993 828.846 559.863 821.786 571.324 811.196C571.324 811.196 572.206 812.078 571.324 812.961C568.679 828.846 563.389 887.091 624.223 910.919C648.909 920.627 669.187 913.567 686.82 901.211C692.11 897.681 692.991 899.446 692.11 903.859C689.465 918.861 692.991 950.632 737.955 969.165C772.34 983.285 792.617 969.164 805.842 956.809C812.014 951.514 812.895 952.397 813.777 960.34C815.54 1003.58 851.688 1038 894.888 1038C939.852 1038 976 1001.82 976 956.809C975.118 912.684 938.971 876.501 894.007 875.619Z" fill="white"/>
<path d="M965.5 0C432.445 0 0 283.285 0 631.876C0 640.701 0 665.411 0 668.941C0 1037.83 377.728 1337 965.5 1337C1553.27 1337 1931 1037.83 1931 668.941V631.876C1931 283.285 1498.55 0 965.5 0ZM1886.87 561.275C1676.83 608.048 1520.62 676.001 1480.9 692.769C1389.12 612.461 1177.31 428.899 1119.94 385.656C1087.29 360.946 1065.23 347.708 1044.93 342.413C1036.1 339.766 1023.75 337.118 1007.86 337.118C992.859 337.118 977.855 339.766 961.087 345.061C924.02 356.533 886.954 386.539 851.652 414.779V415.661C818.116 442.137 783.696 469.494 758.103 475.672C746.63 478.319 735.157 479.202 723.684 479.202C694.56 479.202 668.084 470.377 658.376 458.022C656.611 456.257 657.493 452.727 661.906 447.432L662.788 446.549L743.1 360.064C806.643 296.523 865.773 237.395 1003.45 233.865C1006.1 233.865 1007.86 233.865 1010.51 233.865C1096.12 233.865 1181.72 271.813 1190.55 276.225C1270.86 315.056 1352.94 335.353 1436.78 335.353C1523.27 335.353 1612.4 314.173 1705.95 270.93C1802.15 353.886 1867.46 453.609 1886.87 561.275ZM965.5 37.0655C1248.8 37.0655 1502.08 118.256 1672.42 246.22C1590.34 281.52 1511.79 300.053 1435.89 300.053C1358.23 300.053 1280.57 281.52 1205.55 244.455C1202.02 242.69 1107.59 197.682 1008.74 197.682C1006.1 197.682 1003.45 197.682 1000.8 197.682C885.189 200.329 820.763 240.925 776.636 277.108C734.274 277.99 697.207 288.58 664.553 297.405C635.43 305.348 610.718 312.408 586.007 312.408C576.299 312.408 557.766 311.526 556.001 311.526C527.76 310.643 386.553 276.225 273.588 233.865C444.801 112.961 691.03 37.0655 965.5 37.0655ZM241.816 258.575C359.194 307.113 502.166 344.178 548.058 346.826C560.414 347.708 573.652 349.473 587.772 349.473C617.779 349.473 647.785 340.648 676.909 332.706C693.677 328.293 713.093 322.998 732.509 318.586C727.214 323.881 721.919 329.176 716.623 334.471L634.547 422.721C628.369 428.899 614.249 446.549 623.074 467.729C626.604 476.554 634.547 484.497 644.255 491.557C663.671 504.795 698.973 513.62 730.744 513.62C743.1 513.62 754.573 512.737 765.163 510.09C799.582 502.147 835.766 473.907 873.716 443.019C903.722 419.192 946.967 388.304 980.503 379.479C990.211 376.831 1000.8 375.066 1010.51 375.066C1013.16 375.066 1015.8 375.066 1018.45 375.949C1040.52 378.596 1061.7 386.539 1098.76 414.779C1165.84 465.082 1463.25 725.422 1465.9 728.069C1465.9 728.069 1485.32 744.837 1483.55 772.195C1482.67 787.197 1474.73 800.435 1459.72 810.143C1447.37 818.085 1434.13 822.498 1420.89 822.498C1400.59 822.498 1387.35 812.79 1386.47 812.79C1385.59 811.908 1283.21 718.362 1246.15 686.592C1239.97 681.297 1234.67 676.884 1228.5 676.884C1224.97 676.884 1222.32 678.649 1220.55 680.414C1214.38 687.474 1221.44 698.064 1229.38 704.242L1348.52 824.263C1348.52 824.263 1363.53 838.383 1365.29 856.916C1366.17 876.331 1356.47 893.098 1337.05 906.336C1322.93 916.044 1308.81 920.456 1294.69 920.456C1276.15 920.456 1263.8 912.514 1261.15 909.866L1244.38 893.098C1213.49 862.211 1180.84 830.44 1157.01 811.025C1150.83 806.613 1145.54 802.2 1139.36 802.2C1136.71 802.2 1134.07 803.083 1131.42 805.73C1128.77 808.378 1127 813.673 1133.18 823.38C1135.83 826.91 1139.36 830.44 1139.36 830.44L1225.85 928.399C1226.73 929.281 1243.5 949.579 1227.61 969.877L1224.08 973.407C1221.44 976.054 1218.79 978.702 1216.14 981.349C1201.14 993.704 1181.72 994.587 1173.78 994.587C1169.37 994.587 1165.84 994.587 1162.31 993.704C1153.48 991.939 1148.19 990.174 1145.54 986.644L1144.66 985.762C1140.24 980.467 1096.12 936.341 1059.93 906.336C1055.52 901.924 1049.34 897.511 1043.16 897.511C1040.52 897.511 1037.87 898.393 1035.22 901.041C1028.16 908.984 1038.75 920.456 1043.16 924.869L1117.3 1006.94C1117.3 1007.82 1116.41 1009.59 1114.65 1012.24C1112 1015.77 1103.18 1024.59 1075.82 1028.12C1072.29 1028.12 1069.64 1029 1066.11 1029C1038.75 1029 1008.74 1015.77 993.741 1007.82C1000.8 992.822 1004.33 976.937 1004.33 961.051C1004.33 900.158 954.909 850.738 894.014 850.738C893.132 850.738 891.367 850.738 890.484 850.738C892.249 822.498 888.719 770.43 834.001 746.602C818.116 739.542 803.112 736.012 788.109 736.012C776.636 736.012 765.163 737.777 754.573 742.19C743.1 720.127 724.566 704.242 700.738 696.299C687.5 691.886 674.261 689.239 661.023 689.239C638.077 689.239 617.779 696.299 599.245 708.654C581.595 686.592 555.118 673.354 526.877 673.354C502.166 673.354 478.337 683.061 460.686 700.712C437.74 683.061 345.956 624.816 101.492 569.218C90.0192 566.57 63.543 558.628 46.7747 554.215C67.9557 442.137 137.676 341.531 241.816 258.575ZM695.442 896.628L692.795 893.981H690.147C688.382 893.981 685.734 894.863 683.087 896.628C670.731 905.454 658.376 909.866 646.903 909.866C639.842 909.866 633.664 908.101 626.604 906.336C570.122 884.273 574.534 830.44 577.182 814.555C577.182 811.025 577.182 808.378 574.534 806.613L570.122 803.083L566.591 806.613C555.118 817.203 540.998 823.38 525.994 823.38C493.34 823.38 466.864 796.905 466.864 764.252C466.864 731.599 493.34 705.124 525.994 705.124C555.118 705.124 580.712 727.187 584.242 756.31L586.007 772.195L594.833 758.957C595.715 757.192 619.544 721.009 663.671 721.009C671.614 721.009 680.439 722.774 689.265 725.422C724.566 736.012 729.862 767.782 730.744 781.02C731.627 788.962 736.922 788.962 737.804 788.962C740.452 788.962 743.1 787.197 744.865 785.432C751.042 778.372 766.046 766.9 788.109 766.9C798.7 766.9 809.29 769.547 820.763 773.96C876.363 797.788 850.77 868.388 850.77 869.271C846.357 880.743 845.474 886.038 849.887 888.686L851.652 889.569H853.417C856.065 889.569 858.712 888.686 864.008 886.921C871.951 884.273 882.541 880.743 894.014 880.743C935.494 881.626 969.913 915.161 969.913 956.639C969.913 998.117 935.494 1032.53 894.014 1032.53C853.417 1032.53 819.881 1000.76 818.116 960.169C818.116 956.639 817.233 947.814 810.173 947.814C806.643 947.814 803.995 949.579 801.347 952.226C792.522 960.169 781.049 968.994 764.281 968.994C756.338 968.994 748.395 967.229 739.569 963.699C696.325 946.049 695.442 916.926 697.207 904.571C697.207 901.923 698.09 899.276 695.442 896.628ZM965.5 1224.92C452.744 1224.92 37.0667 959.287 37.0667 630.993C37.0667 617.756 37.9493 604.518 39.7143 591.281C44.1271 592.163 84.7239 601.871 92.6668 603.636C342.426 659.234 425.385 716.597 439.505 728.069C435.093 739.542 432.445 751.897 432.445 764.252C432.445 816.32 474.807 857.798 525.994 857.798C532.172 857.798 537.468 856.916 543.645 856.033C551.588 893.981 576.299 923.104 614.249 938.106C625.722 942.519 636.312 944.284 647.785 944.284C654.845 944.284 661.906 943.401 668.966 941.636C676.026 959.287 691.912 981.349 727.214 996.352C739.569 1001.65 751.925 1004.29 764.281 1004.29C773.989 1004.29 783.697 1002.53 792.522 998.999C809.29 1040.48 849.887 1067.84 894.897 1067.84C924.903 1067.84 953.144 1055.48 974.325 1034.3C991.976 1044.01 1029.93 1062.54 1067.87 1062.54C1073.17 1062.54 1077.58 1062.54 1082 1061.66C1119.94 1057.25 1137.6 1042.24 1145.54 1030.77C1147.3 1029 1148.19 1026.36 1149.07 1024.59C1157.89 1027.24 1167.6 1029 1179.07 1029C1199.37 1029 1219.67 1021.94 1239.97 1007.82C1259.39 993.704 1273.51 973.407 1275.27 955.757V954.874C1282.33 956.639 1288.51 956.639 1295.57 956.639C1316.75 956.639 1337.93 950.462 1357.35 937.224C1396.18 911.631 1402.36 878.978 1402.36 857.798C1409.42 859.563 1415.6 859.563 1422.66 859.563C1442.95 859.563 1462.37 853.385 1480.9 841.913C1504.73 826.91 1518.85 803.082 1521.5 775.725C1523.27 757.192 1517.97 738.659 1508.26 722.774C1572.69 695.416 1720.07 641.584 1893.05 601.871C1893.93 611.578 1893.93 621.286 1893.93 631.876C1893.93 959.287 1478.26 1224.92 965.5 1224.92Z" fill="#0A0080"/>
<path d="M5241.05 194.69C5205.75 150.553 5152.8 128.485 5081.31 128.485C5009.83 128.485 4956.88 150.553 4921.58 194.69C4886.27 238.827 4868.62 290.908 4868.62 350.051C4868.62 410.077 4886.27 463.041 4921.58 506.295C4956.88 549.549 5009.83 571.618 5081.31 571.618C5152.8 571.618 5205.75 549.549 5241.05 506.295C5276.35 463.041 5294 410.96 5294 350.051C5294 289.143 5276.35 238.827 5241.05 194.69ZM5154.56 447.152C5137.79 470.103 5113.08 480.696 5081.31 480.696C5049.54 480.696 5024.83 469.22 5008.06 447.152C4991.29 424.201 4982.47 392.423 4982.47 350.934C4982.47 309.446 4991.29 277.667 5008.06 254.716C5024.83 232.648 5049.54 221.172 5081.31 221.172C5113.08 221.172 5137.79 232.648 5154.56 254.716C5171.33 276.785 5180.15 309.446 5180.15 350.934C5180.15 392.423 5171.33 424.201 5154.56 447.152ZM4345.29 157.615C4309.99 139.961 4269.39 130.251 4223.5 130.251C4152.9 130.251 4103.48 148.788 4074.35 184.98C4055.82 208.814 4046.11 238.827 4043.47 275.019H4148.49C4151.13 259.13 4156.43 245.889 4164.37 237.062C4174.96 224.703 4193.49 217.641 4219.97 217.641C4242.92 217.641 4260.57 221.172 4272.92 227.351C4285.28 233.531 4290.57 245.889 4290.57 262.661C4290.57 276.785 4282.63 287.377 4266.74 293.556C4257.92 297.087 4243.8 300.618 4223.5 303.267L4186.43 307.68C4144.07 312.977 4112.3 321.804 4090.24 334.162C4050.53 357.113 4030.23 394.188 4030.23 445.387C4030.23 485.11 4042.58 515.123 4067.29 537.191C4092 558.377 4123.78 568.087 4161.72 569.852C4400 580.445 4397.36 444.504 4399.12 416.256V260.012C4398.24 210.579 4380.59 176.153 4345.29 157.615ZM4289.69 395.071C4288.81 431.263 4278.22 456.862 4258.8 470.103C4238.5 484.227 4216.44 490.406 4192.61 490.406C4177.61 490.406 4164.37 485.992 4154.66 478.048C4144.07 470.103 4138.78 455.979 4138.78 437.442C4138.78 416.256 4147.6 401.25 4164.37 391.54C4174.96 385.361 4190.85 380.947 4214.68 376.533L4239.39 372.12C4251.74 369.472 4261.45 366.823 4268.51 364.175C4275.57 361.527 4282.63 357.996 4289.69 353.582V395.071ZM3802.54 223.821C3829.9 223.821 3849.31 232.648 3862.55 249.42C3871.37 261.778 3876.67 275.902 3879.32 291.791H3996.69C3990.51 232.648 3969.33 191.159 3934.92 168.208C3899.61 145.257 3854.61 132.899 3799.89 132.899C3735.47 132.899 3684.28 152.319 3648.1 192.042C3611.03 231.765 3593.38 287.377 3593.38 358.879C3593.38 421.553 3610.15 473.634 3643.68 513.357C3677.22 553.08 3728.41 572.5 3799.01 572.5C3869.61 572.5 3922.56 548.667 3958.74 500.999C3981.69 471.869 3994.04 440.09 3996.69 407.429H3878.43C3875.79 429.497 3869.61 447.152 3858.14 461.276C3846.66 474.517 3828.13 481.579 3800.77 481.579C3762.82 481.579 3737.23 463.924 3723.11 429.497C3715.17 410.96 3711.64 386.244 3711.64 356.231C3711.64 326.218 3715.17 298.853 3723.11 279.433C3737.23 242.358 3763.71 223.821 3802.54 223.821ZM3560.73 132.016C3319.8 132.016 3333.92 345.638 3333.92 345.638V562.79H3443.35V359.761C3443.35 326.218 3447.76 301.501 3455.71 285.612C3470.71 257.364 3499.83 243.241 3543.96 243.241C3547.49 243.241 3551.9 243.241 3557.2 244.123C3562.49 244.123 3568.67 245.006 3575.73 245.889V134.664C3571.32 134.664 3567.79 133.782 3566.02 133.782C3564.26 132.016 3562.49 132.016 3560.73 132.016ZM3246.55 213.228C3228.02 184.98 3203.3 164.677 3175.06 151.436C3145.94 138.195 3113.29 132.016 3077.1 132.016C3016.21 132.016 2966.79 151.436 2928.84 189.394C2890.89 228.234 2871.48 282.964 2871.48 355.348C2871.48 432.146 2892.66 487.758 2935.02 522.185C2977.38 556.611 3025.92 573.383 3081.52 573.383C3148.59 573.383 3200.66 553.08 3237.72 512.474C3258.02 491.289 3270.38 470.103 3275.67 449.8H3159.18C3154.77 455.979 3149.47 462.159 3144.18 466.572C3128.29 478.931 3107.99 483.344 3083.28 483.344C3060.34 483.344 3041.8 479.813 3025.03 469.22C2997.68 452.449 2982.67 424.201 2980.91 382.713H3283.61C3283.61 346.521 3282.73 319.156 3280.08 299.735C3274.79 266.192 3263.32 237.944 3246.55 213.228ZM2982.67 309.446C2986.2 282.081 2995.91 260.895 3011.8 245.006C3026.8 229.117 3048.86 221.172 3077.1 221.172C3102.7 221.172 3123.88 228.234 3141.53 243.241C3159.18 258.247 3168 280.315 3170.65 308.563H2982.67V309.446ZM2653.49 130.251C2602.31 130.251 2559.06 152.319 2529.06 188.511C2500.82 153.202 2457.57 130.251 2404.62 130.251C2297.84 130.251 2229 208.814 2229 312.976V561.908H2328.72V310.328C2328.72 264.426 2359.61 232.648 2404.62 232.648C2470.81 232.648 2476.99 287.377 2476.99 310.328V561.908H2576.71V310.328C2576.71 264.426 2608.48 232.648 2652.61 232.648C2718.8 232.648 2725.86 287.377 2725.86 310.328V561.908H2825.59V312.976C2827.35 206.166 2762.93 130.251 2653.49 130.251ZM4726.54 77.2866V194.69C4714.18 175.27 4698.3 159.381 4678.88 148.788C4659.47 138.195 4637.4 132.016 4611.81 132.016C4557.09 132.016 4513.85 152.319 4481.2 192.925C4448.54 233.531 4431.78 292.674 4431.78 363.292C4431.78 425.084 4448.54 475.4 4481.2 514.24C4514.73 553.08 4579.16 570.735 4637.4 570.735C4838.62 570.735 4836.85 397.719 4836.85 397.719V0.488617C4836.85 0.488617 4726.54 -10.9868 4726.54 77.2866ZM4705.36 448.035C4689.47 470.986 4665.64 482.461 4635.64 482.461C4605.63 482.461 4581.8 470.986 4566.8 448.035C4551.8 425.084 4543.86 391.54 4543.86 352.699C4543.86 317.39 4550.92 287.377 4565.92 263.544C4580.92 239.71 4603.87 227.351 4635.64 227.351C4656.82 227.351 4674.47 233.53 4690.35 246.771C4715.95 268.84 4729.19 307.68 4729.19 358.879C4730.07 395.071 4721.24 425.084 4705.36 448.035ZM2460.22 729.627C2370.2 725.213 2324.31 747.282 2295.19 769.35C2254.59 800.246 2229 847.031 2229 921.18V1301.64H2281.95C2296.07 1301.64 2310.19 1296.34 2320.78 1287.52C2332.26 1276.92 2338.43 1263.68 2338.43 1247.79V1104.79C2351.67 1126.86 2368.44 1143.63 2389.62 1154.22C2409.92 1163.93 2433.75 1168.35 2460.22 1168.35C2510.52 1168.35 2552 1148.04 2583.77 1108.32C2615.54 1066.83 2632.31 1012.98 2632.31 946.78C2632.31 879.692 2617.31 832.907 2580.24 787.888C2552 751.695 2506.99 731.392 2460.22 729.627ZM2498.17 1041.23C2482.28 1063.3 2460.22 1074.78 2431.98 1074.78C2401.97 1074.78 2379.03 1064.18 2363.14 1041.23C2347.26 1020.93 2339.32 990.916 2339.32 951.193C2339.32 907.939 2346.38 876.161 2361.38 855.858C2377.26 833.79 2400.21 822.314 2429.33 822.314C2458.46 822.314 2482.28 833.79 2498.17 855.858C2514.05 877.926 2522 909.705 2522 951.193C2522 989.151 2514.05 1019.16 2498.17 1041.23ZM3400.11 768.467C3363.04 740.22 3325.09 725.213 3259.79 726.979C3193.6 728.744 3145.06 747.282 3115.05 787.888C3085.05 828.493 3070.04 881.457 3070.04 946.78C3070.04 1002.39 3081.52 1048.29 3103.58 1082.72C3126.53 1117.15 3153 1140.98 3184.77 1153.34C3216.54 1165.7 3248.31 1168.35 3280.08 1161.28C3311.85 1154.22 3337.45 1135.68 3356.86 1105.67V1132.15C3355.1 1165.7 3346.27 1191.3 3332.15 1208.07C3318.03 1224.84 3302.15 1235.43 3284.5 1238.96C3266.85 1242.5 3250.08 1240.73 3232.43 1232.79C3214.78 1224.84 3202.42 1213.37 3193.6 1198.36H3077.99C3107.99 1288.4 3161.83 1328.12 3258.02 1334.3C3413.34 1345.78 3463.65 1213.37 3463.65 1142.75V919.415C3465.41 847.031 3440.7 799.363 3400.11 768.467ZM3354.22 988.268C3349.8 1012.98 3343.63 1031.52 3333.92 1043C3313.62 1070.36 3282.73 1080.07 3241.25 1072.13C3198.89 1064.18 3177.71 1023.58 3177.71 951.193C3177.71 917.649 3183.89 887.636 3196.24 861.154C3208.6 834.672 3233.31 821.431 3268.61 821.431C3295.09 821.431 3315.39 831.142 3328.62 849.679C3342.74 869.099 3350.69 890.285 3355.1 915.001C3358.63 938.835 3358.63 963.551 3354.22 988.268ZM2976.5 757.875C2941.2 740.22 2900.6 730.51 2854.71 730.51C2784.11 730.51 2734.69 749.047 2705.56 785.239C2687.03 809.073 2677.32 839.086 2674.67 875.278H2779.69C2782.34 859.389 2787.64 846.148 2795.58 837.321C2806.17 824.962 2824.7 817.9 2851.18 817.9C2874.12 817.9 2891.77 821.431 2904.13 827.611C2916.48 833.79 2921.78 846.148 2921.78 862.92C2921.78 877.044 2913.84 887.636 2897.95 893.816C2889.13 897.347 2875.01 900.878 2854.71 903.526L2817.64 907.939C2775.28 913.236 2742.63 922.063 2721.45 934.421C2681.73 957.373 2661.44 994.447 2661.44 1045.65C2661.44 1085.37 2673.79 1115.38 2698.5 1137.45C2723.21 1158.64 2754.98 1168.35 2792.93 1170.11C3030.33 1180.7 3027.68 1044.76 3030.33 1016.52V860.272C3030.33 809.956 3012.68 775.529 2976.5 757.875ZM2920.9 995.33C2920.01 1031.52 2909.42 1057.12 2890.01 1070.36C2869.71 1084.49 2847.65 1090.67 2823.82 1090.67C2808.82 1090.67 2796.46 1086.25 2785.87 1078.31C2775.28 1070.36 2769.99 1056.24 2769.99 1037.7C2769.99 1016.52 2778.81 1001.51 2795.58 991.799C2806.17 985.62 2822.05 981.206 2845.88 976.793L2870.59 972.379C2882.95 969.731 2892.66 967.965 2899.72 964.434C2906.78 961.786 2913.84 958.255 2920.9 953.841V995.33ZM3878.43 792.301C3843.13 748.165 3790.18 726.096 3718.7 726.096C3647.21 726.096 3594.26 748.165 3558.96 792.301C3523.66 836.438 3506.01 888.519 3506.01 947.662C3506.01 1006.81 3523.66 1060.65 3558.96 1103.91C3594.26 1147.16 3647.21 1168.35 3718.7 1168.35C3790.18 1168.35 3843.13 1146.28 3878.43 1103.91C3913.74 1060.65 3931.39 1008.57 3931.39 947.662C3931.39 886.754 3913.74 836.438 3878.43 792.301ZM3791.95 1043.88C3775.18 1066.83 3750.47 1077.42 3718.7 1077.42C3686.93 1077.42 3662.22 1065.95 3645.45 1043.88C3627.8 1020.93 3619.86 989.151 3619.86 947.662C3619.86 906.174 3628.68 874.395 3645.45 851.444C3662.22 829.376 3686.93 817.9 3718.7 817.9C3750.47 817.9 3775.18 829.376 3791.95 851.444C3808.71 873.513 3817.54 906.174 3817.54 947.662C3817.54 990.034 3808.71 1021.81 3791.95 1043.88Z" fill="#0A0080"/>
</svg>
