<svg width="573" height="166" viewBox="0 0 573 166" fill="none" xmlns="http://www.w3.org/2000/svg">
<path d="M205.875 4.75H220.5V73.9375H208.042L176.708 30.75V73.9375H162V4.75H175.521L205.875 46.9583V4.75Z" fill="#1A2832"/>
<path d="M287.104 47.0612C287.104 48.4362 287.005 49.8529 286.812 51.3112H246.479C247.072 54.9362 248.525 57.7227 250.833 59.6654C253.135 61.5977 256.031 62.5612 259.52 62.5612C262.031 62.5612 264.275 62.0195 266.249 60.9362C268.218 59.8529 269.734 58.3529 270.791 56.4362H286.02C284.031 62.2435 280.666 66.8633 275.916 70.2904C271.176 73.707 265.713 75.4154 259.52 75.4154C254.255 75.4154 249.525 74.1758 245.333 71.707C241.15 69.2383 237.859 65.8737 235.458 61.6237C233.051 57.3737 231.854 52.582 231.854 47.2487C231.854 41.9154 233.051 37.1237 235.458 32.8737C237.859 28.6237 241.15 25.2643 245.333 22.7904C249.525 20.3216 254.255 19.082 259.52 19.082C264.989 19.082 269.801 20.3529 273.958 22.8945C278.109 25.4258 281.338 28.8008 283.645 33.0195C285.947 37.2435 287.104 41.9258 287.104 47.0612ZM259.52 31.332C256.296 31.332 253.583 32.2279 251.374 34.0195C249.166 35.8008 247.666 38.2643 246.874 41.4154H272.666C270.567 34.6966 266.187 31.332 259.52 31.332Z" fill="#1A2832"/>
<path d="M340.454 20.5612H349.85V67.707C349.85 73.306 348.745 78.1081 346.537 82.1237C344.329 86.1497 341.183 89.2487 337.1 91.4154C333.016 93.5925 328.173 94.6862 322.579 94.6862C315.329 94.6862 309.277 92.9362 304.433 89.4362C299.6 85.9466 296.584 81.1758 295.391 75.1237H309.725C310.516 77.4987 312.146 79.2904 314.62 80.4987C317.089 81.7175 319.646 82.332 322.287 82.332C325.964 82.332 329.105 81.2279 331.704 79.0195C334.313 76.8112 335.62 73.7383 335.62 69.7904V67.8112C333.506 69.3268 331.167 70.4987 328.6 71.332C326.027 72.1549 323.292 72.5612 320.391 72.5612C315.459 72.5612 310.98 71.3737 306.954 68.9987C302.938 66.6237 299.756 63.431 297.412 59.4154C295.079 55.3893 293.912 50.8737 293.912 45.8737C293.912 40.8633 295.079 36.332 297.412 32.2904C299.756 28.2383 302.938 25.0195 306.954 22.6445C310.98 20.2695 315.459 19.082 320.391 19.082C323.891 19.082 327.152 19.681 330.183 20.8737C333.209 22.056 335.876 23.7279 338.183 25.8945L340.454 20.5612ZM322.079 59.707C326.037 59.707 329.298 58.4102 331.87 55.8112C334.438 53.2018 335.725 49.8893 335.725 45.8737C335.725 41.9154 334.454 38.6393 331.912 36.0404C329.37 33.431 326.089 32.1237 322.079 32.1237C318.188 32.1237 314.959 33.431 312.391 36.0404C309.818 38.6393 308.537 41.9154 308.537 45.8737C308.537 49.8893 309.798 53.2018 312.329 55.8112C314.87 58.4102 318.12 59.707 322.079 59.707Z" fill="#1A2832"/>
<path d="M389.075 75.4154C383.544 75.4154 378.606 74.1758 374.262 71.707C369.913 69.2383 366.481 65.8737 363.971 61.6237C361.471 57.3737 360.221 52.582 360.221 47.2487C360.221 41.8477 361.471 37.0195 363.971 32.7695C366.481 28.5195 369.913 25.181 374.262 22.7487C378.606 20.306 383.544 19.082 389.075 19.082C394.544 19.082 399.455 20.306 403.804 22.7487C408.148 25.181 411.575 28.5195 414.075 32.7695C416.585 37.0195 417.846 41.8477 417.846 47.2487C417.846 52.582 416.585 57.3737 414.075 61.6237C411.575 65.8737 408.148 69.2383 403.804 71.707C399.455 74.1758 394.544 75.4154 389.075 75.4154ZM389.075 61.8737C393.226 61.8737 396.622 60.5299 399.262 57.832C401.898 55.1237 403.221 51.5977 403.221 47.2487C403.221 42.9049 401.898 39.3841 399.262 36.6862C396.622 33.9779 393.226 32.6237 389.075 32.6237C384.867 32.6237 381.439 33.9779 378.804 36.6862C376.163 39.3841 374.846 42.9049 374.846 47.2487C374.846 51.5977 376.163 55.1237 378.804 57.832C381.439 60.5299 384.867 61.8737 389.075 61.8737Z" fill="#1A2832"/>
<path d="M453.021 75.4154C447.688 75.4154 442.875 74.1654 438.583 71.6654C434.302 69.1654 430.927 65.7799 428.458 61.4987C425.984 57.207 424.75 52.3945 424.75 47.0612C424.75 41.7174 425.984 36.9362 428.458 32.7279C430.927 28.5091 434.302 25.181 438.583 22.7487C442.875 20.306 447.719 19.082 453.125 19.082C457.734 19.082 461.927 19.9935 465.708 21.8112C469.5 23.6185 472.656 26.1654 475.188 29.457C477.729 32.7487 479.427 36.5768 480.292 40.9362H465.958C464.776 38.3008 463.047 36.2591 460.771 34.8112C458.505 33.3529 455.922 32.6237 453.021 32.6237C450.448 32.6237 448.125 33.2695 446.042 34.5612C443.969 35.8424 442.339 37.5716 441.146 39.7487C439.964 41.9154 439.375 44.3841 439.375 47.1445C439.375 49.9258 439.964 52.4154 441.146 54.6237C442.339 56.8216 443.969 58.5768 446.042 59.8945C448.125 61.2174 450.448 61.8737 453.021 61.8737C455.979 61.8737 458.563 61.1029 460.771 59.5612C462.979 58.0091 464.708 55.7852 465.958 52.8945H480.5C479.635 57.3685 477.922 61.306 475.354 64.707C472.781 68.0977 469.589 70.7279 465.771 72.6029C461.948 74.4779 457.698 75.4154 453.021 75.4154Z" fill="#1A2832"/>
<path d="M489.971 13.4583V0H504.408V13.4583H489.971ZM489.971 73.9375V20.5625H504.408V73.9375H489.971Z" fill="#1A2832"/>
<path d="M543.629 75.4154C538.097 75.4154 533.16 74.1758 528.816 71.707C524.467 69.2383 521.035 65.8737 518.524 61.6237C516.024 57.3737 514.774 52.582 514.774 47.2487C514.774 41.8477 516.024 37.0195 518.524 32.7695C521.035 28.5195 524.467 25.181 528.816 22.7487C533.16 20.306 538.097 19.082 543.629 19.082C549.097 19.082 554.009 20.306 558.358 22.7487C562.701 25.181 566.129 28.5195 568.629 32.7695C571.139 37.0195 572.399 41.8477 572.399 47.2487C572.399 52.582 571.139 57.3737 568.629 61.6237C566.129 65.8737 562.701 69.2383 558.358 71.707C554.009 74.1758 549.097 75.4154 543.629 75.4154ZM543.629 61.8737C547.78 61.8737 551.175 60.5299 553.816 57.832C556.451 55.1237 557.774 51.5977 557.774 47.2487C557.774 42.9049 556.451 39.3841 553.816 36.6862C551.175 33.9779 547.78 32.6237 543.629 32.6237C539.42 32.6237 535.993 33.9779 533.358 36.6862C530.717 39.3841 529.399 42.9049 529.399 47.2487C529.399 51.5977 530.717 55.1237 533.358 57.832C535.993 60.5299 539.42 61.8737 543.629 61.8737Z" fill="#1A2832"/>
<path d="M177.021 149.725H203.5V163.662H162V94.4746H177.021V149.725Z" fill="#1A2832"/>
<path d="M237.979 165.14C232.448 165.14 227.51 163.9 223.167 161.432C218.818 158.963 215.385 155.598 212.875 151.348C210.375 147.098 209.125 142.307 209.125 136.973C209.125 131.572 210.375 126.744 212.875 122.494C215.385 118.244 218.818 114.906 223.167 112.473C227.51 110.031 232.448 108.807 237.979 108.807C243.448 108.807 248.359 110.031 252.708 112.473C257.052 114.906 260.479 118.244 262.979 122.494C265.49 126.744 266.75 131.572 266.75 136.973C266.75 142.307 265.49 147.098 262.979 151.348C260.479 155.598 257.052 158.963 252.708 161.432C248.359 163.9 243.448 165.14 237.979 165.14ZM237.979 151.598C242.13 151.598 245.526 150.255 248.167 147.557C250.802 144.848 252.125 141.322 252.125 136.973C252.125 132.63 250.802 129.109 248.167 126.411C245.526 123.702 242.13 122.348 237.979 122.348C233.771 122.348 230.344 123.702 227.708 126.411C225.068 129.109 223.75 132.63 223.75 136.973C223.75 141.322 225.068 144.848 227.708 147.557C230.344 150.255 233.771 151.598 237.979 151.598Z" fill="#1A2832"/>
<path d="M301.925 165.14C296.592 165.14 291.779 163.89 287.488 161.39C283.206 158.89 279.831 155.505 277.363 151.223C274.889 146.932 273.654 142.119 273.654 136.786C273.654 131.442 274.889 126.661 277.363 122.452C279.831 118.234 283.206 114.906 287.488 112.473C291.779 110.031 296.623 108.807 302.029 108.807C306.639 108.807 310.831 109.718 314.613 111.536C318.404 113.343 321.561 115.89 324.092 119.182C326.633 122.473 328.331 126.301 329.196 130.661H314.863C313.68 128.025 311.951 125.984 309.675 124.536C307.41 123.077 304.826 122.348 301.925 122.348C299.352 122.348 297.029 122.994 294.946 124.286C292.873 125.567 291.243 127.296 290.05 129.473C288.868 131.64 288.279 134.109 288.279 136.869C288.279 139.65 288.868 142.14 290.05 144.348C291.243 146.546 292.873 148.301 294.946 149.619C297.029 150.942 299.352 151.598 301.925 151.598C304.883 151.598 307.467 150.827 309.675 149.286C311.883 147.734 313.613 145.51 314.863 142.619H329.404C328.54 147.093 326.826 151.031 324.258 154.432C321.686 157.822 318.493 160.452 314.675 162.327C310.852 164.202 306.602 165.14 301.925 165.14Z" fill="#1A2832"/>
<path d="M382.459 110.182H393.229V163.557H381.875L380.688 158.827C378.381 160.801 375.761 162.348 372.834 163.473C369.901 164.583 366.756 165.14 363.396 165.14C358.047 165.14 353.261 163.9 349.042 161.432C344.834 158.963 341.506 155.598 339.063 151.348C336.631 147.098 335.417 142.275 335.417 136.869C335.417 131.536 336.631 126.744 339.063 122.494C341.506 118.244 344.834 114.906 349.042 112.473C353.261 110.031 358.047 108.807 363.396 108.807C366.813 108.807 370 109.385 372.959 110.536C375.927 111.692 378.568 113.286 380.875 115.327L382.459 110.182ZM364.584 151.494C367.344 151.494 369.834 150.869 372.042 149.619C374.25 148.369 375.979 146.64 377.229 144.432C378.479 142.223 379.104 139.702 379.104 136.869C379.104 134.109 378.479 131.619 377.229 129.411C375.979 127.202 374.25 125.463 372.042 124.182C369.834 122.89 367.344 122.244 364.584 122.244C361.75 122.244 359.24 122.89 357.063 124.182C354.881 125.463 353.167 127.202 351.917 129.411C350.667 131.619 350.042 134.109 350.042 136.869C350.042 139.702 350.667 142.213 351.917 144.39C353.167 146.557 354.881 148.286 357.063 149.577C359.24 150.859 361.75 151.494 364.584 151.494Z" fill="#1A2832"/>
<path d="M407.061 163.661V91.0156H421.498V163.661H407.061Z" fill="#1A2832"/>
<path d="M61.5 164L6.15 122.857C4.22813 121.46 2.72266 119.683 1.63359 117.524C0.544531 115.365 0 113.079 0 110.667V19.2381C0 15.0476 1.50547 11.4603 4.51641 8.47619C7.52734 5.49206 11.1469 4 15.375 4H107.625C111.853 4 115.473 5.49206 118.484 8.47619C121.495 11.4603 123 15.0476 123 19.2381V110.667C123 113.079 122.455 115.365 121.366 117.524C120.277 119.683 118.772 121.46 116.85 122.857L61.5 164ZM61.5 144.952L107.625 110.667V19.2381H15.375V110.667L61.5 144.952ZM53.4281 103.048L96.8625 60L86.1 48.9524L53.4281 81.3333L37.2844 65.3333L26.1375 76L53.4281 103.048ZM61.5 19.2381H15.375H107.625H61.5Z" fill="#00CA88"/>
</svg>
