<svg width="46" height="55" viewBox="0 0 46 55" fill="none" xmlns="http://www.w3.org/2000/svg">
<path d="M35.488 45.2269H35.1191C34.6949 47.883 33.33 50.0964 31.0243 51.8671C28.7095 53.6378 25.5647 54.5232 21.5805 54.5232C18.574 54.5232 15.7612 53.9422 13.1328 52.7894C10.5228 51.6089 8.23565 49.8935 6.27127 47.6248C4.29766 45.3653 2.76674 42.5524 1.66004 39.177C0.553347 35.8108 0 31.9097 0 27.4829C0 23.0561 0.571794 19.1366 1.73382 15.7151C2.88663 12.3028 4.50978 9.43458 6.60328 7.11974C8.68756 4.81412 11.1961 3.05263 14.1288 1.84449C17.0523 0.617905 20.2986 0 23.8677 0C28.5896 0 32.6567 1.02369 36.0783 3.06186C39.4906 5.10924 42.1835 8.1711 44.1571 12.2474L34.824 17.5965C34.0124 15.5306 32.7397 13.7876 31.0243 12.3581C29.3274 10.9378 26.9388 10.2185 23.8677 10.2185C20.2986 10.2185 17.4581 11.2514 15.3462 13.3172C13.225 15.3646 12.1736 18.5925 12.1736 23.0193V31.5039C12.1736 35.8846 13.225 39.1217 15.3462 41.2059C17.4581 43.2718 20.2986 44.3047 23.8677 44.3047C25.2695 44.3047 26.5976 44.1479 27.8518 43.8251C29.1061 43.5116 30.2128 43.0135 31.1719 42.3495C32.131 41.6671 32.8688 40.837 33.3853 39.8779C33.9202 38.9188 34.1969 37.7936 34.1969 36.484V33.828H24.3842V24.2366H45.1532V53.6009H35.488V45.2269Z" fill="#352359"/>
</svg>
