<svg width="406" height="132" viewBox="0 0 406 132" fill="none" xmlns="http://www.w3.org/2000/svg">
<mask id="mask0_34_189" style="mask-type:luminance" maskUnits="userSpaceOnUse" x="0" y="24" width="32" height="52">
<path d="M0 24.4323H31.0208V75.099H0V24.4323Z" fill="white"/>
</mask>
<g mask="url(#mask0_34_189)">
<path d="M27.5415 74.1719C27.9582 74.4479 28.5103 74.4011 28.8696 74.0521L30.6717 72.3125C30.6144 72.2396 30.5571 72.1771 30.505 72.1042C25.1978 64.6875 13.3228 46.1459 11.2446 26.6042C11.1561 25.7865 10.2498 25.375 9.57275 25.8386C3.80713 29.7292 0.0102539 36.3229 0.0102539 43.8073V55.349C0.0102539 55.7084 0.187338 56.0417 0.484212 56.2396L27.5415 74.1719Z" fill="#FFBC2E"/>
</g>
<mask id="mask1_34_189" style="mask-type:luminance" maskUnits="userSpaceOnUse" x="100" y="67" width="34" height="54">
<path d="M100.354 67.0989H134V120.432H100.354V67.0989Z" fill="white"/>
</mask>
<g mask="url(#mask1_34_189)">
<path d="M132.203 68.5416L101.265 98.4427C100.776 98.9166 100.849 99.7239 101.416 100.104L130.359 119.328C130.89 119.682 131.63 119.5 131.906 118.922C133.255 116.099 134.01 112.937 134.01 109.599V69.3072C134.01 68.3645 132.88 67.8854 132.203 68.5416Z" fill="#5DB3FF"/>
</g>
<mask id="mask2_34_189" style="mask-type:luminance" maskUnits="userSpaceOnUse" x="52" y="21" width="82" height="73">
<path d="M52.354 21.7656H134V93.7656H52.354V21.7656Z" fill="white"/>
</mask>
<g mask="url(#mask2_34_189)">
<path d="M112.364 22.1354H98.8903C98.6143 22.1354 98.3539 22.2396 98.1508 22.4323L52.8122 66.2604C52.3226 66.7344 52.3956 67.5417 52.9633 67.9167L90.182 92.6406C90.5987 92.9167 91.156 92.8646 91.5153 92.5209L112.359 72.3646C112.849 71.8906 112.776 71.0834 112.208 70.7084L93.7445 58.4688C93.1768 58.0938 93.1039 57.2865 93.5935 56.8125L100.151 50.4792C100.51 50.1302 101.062 50.0781 101.479 50.3542L120.729 63.1146C121.146 63.3906 121.698 63.3438 122.057 62.9948L133.682 51.7552C133.89 51.5521 134.01 51.2761 134.01 50.9896V43.8073C134.01 31.8386 124.317 22.1354 112.364 22.1354Z" fill="#ACDE50"/>
</g>
<path d="M63.4789 40.599L80.682 23.9688C81.3695 23.3021 80.9007 22.1354 79.9424 22.1354H65.7549C65.1872 22.1354 64.7341 22.5781 64.708 23.1459C64.458 28.7188 63.3382 34.25 61.7289 39.5209C61.4059 40.5729 62.6872 41.3646 63.4789 40.599Z" fill="#5DB3FF"/>
<mask id="mask3_34_189" style="mask-type:luminance" maskUnits="userSpaceOnUse" x="0" y="69" width="21" height="33">
<path d="M0 69.7656H20.3542V101.766H0V69.7656Z" fill="white"/>
</mask>
<g mask="url(#mask3_34_189)">
<path d="M19.1717 83.4219C19.6613 82.9479 19.5884 82.1406 19.0207 81.7656L1.6613 70.2604C0.952962 69.7917 0.0102539 70.3021 0.0102539 71.151V99.4375C0.0102539 100.38 1.13525 100.859 1.81234 100.203L19.1717 83.4219Z" fill="#ACDE50"/>
</g>
<path d="M78.3959 98.0625C77.9792 97.7865 77.4271 97.8385 77.0626 98.1875L44.7344 129.437C44.0417 130.104 44.5157 131.276 45.474 131.276H74.4011C75.1094 131.276 75.8488 131.276 76.7306 131.276H86C88.5 131.276 88.5 131.276 92.5 131.276H99C100.309 131.276 98.6355 131.276 99.9636 131.276H112.365C115.833 131.276 119.099 130.443 122.005 128.984C122.745 128.609 122.833 127.583 122.141 127.125L78.3959 98.0625Z" fill="#FFBC2E"/>
<path d="M67.1613 90.5989L44.4425 75.5104C44.0311 75.2343 43.4738 75.2864 43.1144 75.6354L1.56754 115.797C1.26025 116.088 1.15087 116.542 1.2915 116.937C4.2967 125.297 12.2759 131.276 21.6561 131.276H26.5207C26.7967 131.276 27.0623 131.167 27.2602 130.974L67.3123 92.2552C67.8019 91.7864 67.729 90.9791 67.1613 90.5989Z" fill="#5DB3FF"/>
<mask id="mask4_34_189" style="mask-type:luminance" maskUnits="userSpaceOnUse" x="16" y="0" width="44" height="70">
<path d="M16.354 0H59.0207V69.7656H16.354V0Z" fill="white"/>
</mask>
<g mask="url(#mask4_34_189)">
<path d="M37.8489 28.9219C33.401 28.9219 29.7968 25.3125 29.7968 20.8594C29.7968 16.4115 33.401 12.8021 37.8489 12.8021C42.2916 12.8021 45.8958 16.4115 45.8958 20.8594C45.8958 25.3125 42.2916 28.9219 37.8489 28.9219ZM17.1666 22.026C17.6718 41.4583 30.3229 61.1042 35.5833 68.4635C36.6979 70.0156 38.9896 70.0313 40.0989 68.4792C45.4635 60.9792 58.5468 40.6667 58.5468 20.8333C58.5468 9.39063 49.2812 0.109377 37.8541 0.109377C25.7708 0.104169 16.8646 10.4792 17.1666 22.026Z" fill="#FB4D48"/>
</g>
<path d="M189.689 95.1271H189.297C188.847 97.948 187.397 100.299 184.949 102.179C182.49 104.06 179.15 105 174.919 105C171.726 105 168.739 104.383 165.947 103.159C163.175 101.905 160.746 100.083 158.66 97.6737C156.564 95.2741 154.938 92.2868 153.763 88.702C152.588 85.127 152 80.9839 152 76.2826C152 71.5813 152.607 67.4186 153.841 63.7849C155.066 60.1609 156.789 57.1148 159.013 54.6564C161.226 52.2078 163.89 50.3371 167.005 49.054C170.11 47.7513 173.558 47.0951 177.348 47.0951C182.363 47.0951 186.682 48.1823 190.316 50.3469C193.94 52.5212 196.8 55.773 198.896 60.1021L188.984 65.7829C188.122 63.589 186.77 61.7378 184.949 60.2197C183.146 58.7113 180.61 57.9474 177.348 57.9474C173.558 57.9474 170.541 59.0443 168.298 61.2383C166.045 63.4127 164.929 66.8407 164.929 71.5421V80.553C164.929 85.2054 166.045 88.6432 168.298 90.8568C170.541 93.0507 173.558 94.1477 177.348 94.1477C178.837 94.1477 180.247 93.9812 181.579 93.6384C182.911 93.3054 184.087 92.7765 185.105 92.0713C186.124 91.3465 186.907 90.465 187.456 89.4464C188.024 88.4277 188.318 87.2328 188.318 85.842V83.0212H177.897V72.8349H199.954V104.021H189.689V95.1271Z" fill="#377DFF"/>
<path d="M242.264 104.021C240.119 104.021 238.347 103.355 236.936 102.023C235.526 100.69 234.625 98.9079 234.233 96.6551H233.763C233.136 99.378 231.725 101.454 229.532 102.884C227.338 104.295 224.634 105 221.422 105C217.191 105 213.949 103.883 211.706 101.631C209.482 99.3878 208.375 96.4201 208.375 92.7374C208.375 88.3005 209.982 84.9997 213.194 82.8254C216.427 80.6608 220.834 79.5736 226.397 79.5736H233.058V76.9095C233.058 74.9016 232.519 73.2953 231.451 72.0906C230.374 70.8957 228.591 70.2884 226.084 70.2884C223.733 70.2884 221.853 70.7978 220.442 71.8164C219.051 72.8154 217.915 73.9516 217.034 75.2249L209.943 68.9956C211.666 66.4882 213.821 64.5293 216.407 63.1189C218.993 61.6889 222.499 60.9641 226.946 60.9641C232.92 60.9641 237.416 62.2864 240.423 64.9211C243.42 67.5362 244.928 71.3462 244.928 76.361V94.8138H248.846V104.021H242.264ZM225.849 96.7335C227.808 96.7335 229.492 96.3025 230.903 95.4406C232.333 94.5787 233.058 93.1977 233.058 91.2878V86.3122H227.259C222.607 86.3122 220.286 87.8989 220.286 91.0527V92.228C220.286 93.7952 220.765 94.9509 221.735 95.6757C222.695 96.3809 224.066 96.7335 225.849 96.7335Z" fill="#377DFF"/>
<path d="M256.765 104.021V61.9436H268.636V69.0739H269.106C269.86 66.88 271.163 64.9896 273.023 63.3931C274.904 61.7771 277.5 60.9641 280.82 60.9641C285.149 60.9641 288.43 62.4137 290.653 65.3129C292.867 68.1924 293.984 72.3061 293.984 77.6539V104.021H282.113V78.5941C282.113 75.8811 281.682 73.8732 280.82 72.5608C279.958 71.2581 278.43 70.6019 276.236 70.6019C275.296 70.6019 274.365 70.7194 273.454 70.9545C272.534 71.1895 271.711 71.5813 270.986 72.1298C270.281 72.6587 269.703 73.3051 269.262 74.0887C268.841 74.8527 268.636 75.7342 268.636 76.7528V104.021H256.765Z" fill="#377DFF"/>
<path d="M310.491 57.438C308.081 57.438 306.338 56.8895 305.241 55.7925C304.144 54.6956 303.595 53.3047 303.595 51.6005V49.8375C303.595 48.1137 304.144 46.7229 305.241 45.6455C306.338 44.5485 308.081 44 310.491 44C312.89 44 314.643 44.5485 315.74 45.6455C316.837 46.7229 317.386 48.1137 317.386 49.8375V51.6005C317.386 53.3047 316.837 54.6956 315.74 55.7925C314.643 56.8895 312.89 57.438 310.491 57.438ZM304.535 61.9435H316.406V104.02H304.535V61.9435Z" fill="#377DFF"/>
<path d="M344.462 105C341.298 105 338.487 104.471 336.039 103.433C333.58 102.395 331.514 100.916 329.849 99.0058C328.203 97.1057 326.95 94.7942 326.088 92.0713C325.245 89.3583 324.834 86.3122 324.834 82.9429C324.834 79.5736 325.245 76.5471 326.088 73.8536C326.95 71.1406 328.203 68.8291 329.849 66.9191C331.514 64.9896 333.58 63.5107 336.039 62.492C338.487 61.4734 341.298 60.9641 344.462 60.9641C348.742 60.9641 352.307 61.9338 355.158 63.8633C358.027 65.8026 360.074 68.5059 361.309 71.9731L351.671 76.1259C351.299 74.5392 350.535 73.1778 349.359 72.0514C348.184 70.9349 346.548 70.3668 344.462 70.3668C342.053 70.3668 340.241 71.1504 339.016 72.7175C337.782 74.2846 337.175 76.4198 337.175 79.1035V86.939C337.175 89.6325 337.782 91.7481 339.016 93.2858C340.241 94.8334 342.053 95.5973 344.462 95.5973C346.597 95.5973 348.302 95.0293 349.555 93.8735C350.809 92.7276 351.72 91.229 352.298 89.3681L361.544 93.3642C360.153 97.3603 357.998 100.299 355.079 102.179C352.18 104.06 348.635 105 344.462 105Z" fill="#377DFF"/>
<path d="M385.98 105C382.866 105 380.104 104.491 377.675 103.472C375.246 102.453 373.179 100.984 371.485 99.045C369.81 97.1155 368.517 94.7942 367.606 92.0713C366.715 89.3583 366.274 86.3122 366.274 82.9429C366.274 79.5736 366.715 76.5373 367.606 73.8144C368.517 71.072 369.81 68.7605 371.485 66.88C373.179 64.9798 375.246 63.5107 377.675 62.492C380.104 61.4734 382.866 60.9641 385.98 60.9641C389.085 60.9641 391.857 61.4734 394.286 62.492C396.715 63.5107 398.762 64.9798 400.437 66.88C402.131 68.7605 403.424 71.072 404.316 73.8144C405.227 76.5373 405.687 79.5736 405.687 82.9429C405.687 86.3122 405.227 89.3583 404.316 92.0713C403.424 94.7942 402.131 97.1155 400.437 99.045C398.762 100.984 396.715 102.453 394.286 103.472C391.857 104.491 389.085 105 385.98 105ZM385.98 95.5973C388.331 95.5973 390.143 94.8823 391.426 93.4426C392.699 92.0126 393.346 89.9459 393.346 87.2525V78.6725C393.346 76.0084 392.699 73.9614 391.426 72.5216C390.143 71.0916 388.331 70.3668 385.98 70.3668C383.63 70.3668 381.808 71.0916 380.535 72.5216C379.252 73.9614 378.615 76.0084 378.615 78.6725V87.2525C378.615 89.9459 379.252 92.0126 380.535 93.4426C381.808 94.8823 383.63 95.5973 385.98 95.5973Z" fill="#377DFF"/>
</svg>
