<svg width="239" height="58" viewBox="0 0 239 58" fill="none" xmlns="http://www.w3.org/2000/svg">
<path d="M35.5183 48.1413H35.1494C34.7252 50.7974 33.3602 53.0108 31.0546 54.7815C28.7398 56.5522 25.5949 57.4375 21.6108 57.4375C18.6043 57.4375 15.7915 56.8565 13.1631 55.7037C10.5531 54.5232 8.26593 52.8079 6.30154 50.5391C4.32794 48.2796 2.79701 45.4668 1.69032 42.0914C0.583621 38.7252 0.0302734 34.8241 0.0302734 30.3973C0.0302734 25.9705 0.602067 22.051 1.7641 18.6294C2.9169 15.2171 4.54005 12.3489 6.63355 10.0341C8.71783 7.72849 11.2263 5.967 14.1591 4.75886C17.0826 3.53227 20.3289 2.91437 23.898 2.91437C28.6199 2.91437 32.687 3.93806 36.1085 5.97622C39.5208 8.02361 42.2138 11.0855 44.1874 15.1618L34.8543 20.5108C34.0427 18.445 32.77 16.7019 31.0546 15.2725C29.3577 13.8522 26.9691 13.1329 23.898 13.1329C20.3289 13.1329 17.4884 14.1658 15.3764 16.2316C13.2553 18.279 12.2039 21.5068 12.2039 25.9336V34.4183C12.2039 38.799 13.2553 42.036 15.3764 44.1203C17.4884 46.1861 20.3289 47.2191 23.898 47.2191C25.2998 47.2191 26.6278 47.0623 27.8821 46.7395C29.1363 46.4259 30.243 45.9279 31.2022 45.2639C32.1613 44.5814 32.8991 43.7514 33.4156 42.7923C33.9505 41.8331 34.2271 40.708 34.2271 39.3984V36.7423H24.4145V27.151H45.1834V56.5153H35.5183V48.1413Z" fill="#00142e"/>
<path d="M85.023 56.5153C83.0033 56.5153 81.334 55.8882 80.006 54.6339C78.6779 53.3797 77.8295 51.7012 77.4606 49.58H77.0179C76.4277 52.1439 75.0996 54.099 73.0338 55.4455C70.968 56.7735 68.4226 57.4376 65.3976 57.4376C61.4135 57.4376 58.3609 56.3862 56.2489 54.265C54.1554 52.1531 53.1133 49.3587 53.1133 45.891C53.1133 41.7133 54.6258 38.6053 57.6507 36.5579C60.6941 34.5198 64.8442 33.4961 70.0826 33.4961H76.3539V30.9876C76.3539 29.0969 75.8466 27.5845 74.8414 26.4501C73.8269 25.325 72.1484 24.7532 69.7875 24.7532C67.5741 24.7532 65.8034 25.2327 64.4753 26.1919C63.1658 27.1326 62.096 28.2024 61.2659 29.4013L54.5889 23.5358C56.212 21.1749 58.241 19.3304 60.6757 18.0023C63.1104 16.6559 66.4121 15.9734 70.5991 15.9734C76.2248 15.9734 80.4579 17.2184 83.2892 19.6993C86.1112 22.1617 87.5315 25.7492 87.5315 30.4711V47.8462H91.2205V56.5153H85.023ZM69.5661 49.6538C71.4106 49.6538 72.9969 49.248 74.3249 48.4364C75.6714 47.6249 76.3539 46.3245 76.3539 44.5261V39.8411H70.8942C66.5135 39.8411 64.3278 41.3351 64.3278 44.3048V45.4115C64.3278 46.8871 64.7797 47.9753 65.6927 48.6578C66.5965 49.3218 67.8877 49.6538 69.5661 49.6538Z" fill="#00142e"/>
<path d="M98.6763 56.5153V16.8956H109.854V23.6096H110.297C111.007 21.5438 112.233 19.7638 113.986 18.2606C115.756 16.7389 118.2 15.9734 121.327 15.9734C125.403 15.9734 128.492 17.3383 130.586 20.0682C132.67 22.7796 133.722 26.653 133.722 31.6885V56.5153H122.544V32.5738C122.544 30.0192 122.138 28.1286 121.327 26.8928C120.515 25.6662 119.076 25.0483 117.011 25.0483C116.125 25.0483 115.249 25.159 114.391 25.3803C113.524 25.6016 112.75 25.9705 112.067 26.487C111.403 26.985 110.859 27.5937 110.444 28.3315C110.048 29.0508 109.854 29.8809 109.854 30.84V56.5153H98.6763Z" fill="#00142e"/>
<path d="M149.265 12.6532C146.996 12.6532 145.355 12.1368 144.322 11.1038C143.289 10.0709 142.772 8.76134 142.772 7.15663V5.49659C142.772 3.87343 143.289 2.56384 144.322 1.54937C145.355 0.516458 146.996 0 149.265 0C151.525 0 153.175 0.516458 154.208 1.54937C155.241 2.56384 155.758 3.87343 155.758 5.49659V7.15663C155.758 8.76134 155.241 10.0709 154.208 11.1038C153.175 12.1368 151.525 12.6532 149.265 12.6532ZM143.658 16.8955H154.835V56.5152H143.658V16.8955Z" fill="#00142e"/>
<path d="M181.252 57.4376C178.273 57.4376 175.627 56.9395 173.321 55.962C171.006 54.9844 169.06 53.5918 167.492 51.7934C165.943 50.0043 164.763 47.8278 163.951 45.2639C163.158 42.7093 162.771 39.8411 162.771 36.6686C162.771 33.4961 163.158 30.6463 163.951 28.1101C164.763 25.5555 165.943 23.379 167.492 21.5806C169.06 19.7638 171.006 18.3712 173.321 17.4121C175.627 16.453 178.273 15.9734 181.252 15.9734C185.283 15.9734 188.64 16.8864 191.323 18.7032C194.025 20.5293 195.953 23.0747 197.115 26.3394L188.04 30.2498C187.69 28.7557 186.97 27.4738 185.864 26.4132C184.757 25.3619 183.217 24.8269 181.252 24.8269C178.984 24.8269 177.277 25.5647 176.125 27.0403C174.963 28.5159 174.391 30.5264 174.391 33.0534V40.4313C174.391 42.9675 174.963 44.9596 176.125 46.4075C177.277 47.8646 178.984 48.584 181.252 48.584C183.263 48.584 184.868 48.0491 186.048 46.9608C187.228 45.8818 188.086 44.4708 188.63 42.7185L197.336 46.4813C196.027 50.244 193.998 53.0108 191.249 54.7815C188.52 56.5522 185.181 57.4376 181.252 57.4376Z" fill="#00142e"/>
<path d="M220.346 57.4376C217.413 57.4376 214.812 56.958 212.525 55.9989C210.238 55.0397 208.292 53.6564 206.696 51.8303C205.119 50.0135 203.902 47.8278 203.044 45.2639C202.205 42.7093 201.79 39.8411 201.79 36.6686C201.79 33.4961 202.205 30.6371 203.044 28.0733C203.902 25.491 205.119 23.3145 206.696 21.5438C208.292 19.7546 210.238 18.3712 212.525 17.4121C214.812 16.453 217.413 15.9734 220.346 15.9734C223.269 15.9734 225.879 16.453 228.166 17.4121C230.453 18.3712 232.381 19.7546 233.958 21.5438C235.553 23.3145 236.771 25.491 237.61 28.0733C238.468 30.6371 238.901 33.4961 238.901 36.6686C238.901 39.8411 238.468 42.7093 237.61 45.2639C236.771 47.8278 235.553 50.0135 233.958 51.8303C232.381 53.6564 230.453 55.0397 228.166 55.9989C225.879 56.958 223.269 57.4376 220.346 57.4376ZM220.346 48.584C222.559 48.584 224.265 47.9108 225.473 46.5551C226.672 45.2086 227.281 43.2626 227.281 40.7265V32.6476C227.281 30.1391 226.672 28.2116 225.473 26.8559C224.265 25.5094 222.559 24.8269 220.346 24.8269C218.132 24.8269 216.417 25.5094 215.218 26.8559C214.01 28.2116 213.41 30.1391 213.41 32.6476V40.7265C213.41 43.2626 214.01 45.2086 215.218 46.5551C216.417 47.9108 218.132 48.584 220.346 48.584Z" fill="#00142e"/>
</svg>
